<mxfile host="Electron" modified="2025-06-14T17:14:49.013Z" agent="Mozilla/5.0 (Macintosh; Intel Mac OS X 10_15_7) AppleWebKit/537.36 (KHTML, like Gecko) draw.io/21.1.2 Chrome/106.0.5249.199 Electron/21.4.3 Safari/537.36" etag="TpMIN6T1zHdlp4Po2nsz" version="21.1.2" type="device">
  <diagram name="Page-1" id="XSJ5ditq8LGPdKxRqv7D">
    <mxGraphModel dx="1656" dy="1093" grid="1" gridSize="10" guides="1" tooltips="1" connect="1" arrows="1" fold="1" page="1" pageScale="1" pageWidth="1100" pageHeight="850" math="0" shadow="0">
      <root>
        <mxCell id="0" />
        <mxCell id="1" parent="0" />
        <mxCell id="YWkT2PEXVsnUWsBG_KgA-310" value="" style="rounded=1;whiteSpace=wrap;html=1;arcSize=50;rotation=-45;fillColor=#F8CECC;strokeColor=none;" vertex="1" parent="1">
          <mxGeometry x="802.03" y="661" width="122" height="40" as="geometry" />
        </mxCell>
        <mxCell id="YWkT2PEXVsnUWsBG_KgA-303" value="" style="rounded=1;whiteSpace=wrap;html=1;arcSize=50;rotation=-45;fillColor=#F8CECC;strokeColor=none;" vertex="1" parent="1">
          <mxGeometry x="738.5899999999999" y="479.95000000000005" width="122" height="40" as="geometry" />
        </mxCell>
        <mxCell id="YWkT2PEXVsnUWsBG_KgA-304" value="" style="rounded=1;whiteSpace=wrap;html=1;arcSize=50;rotation=45;fillColor=#F8CECC;strokeColor=none;" vertex="1" parent="1">
          <mxGeometry x="799.0299999999997" y="479" width="124.97" height="40" as="geometry" />
        </mxCell>
        <mxCell id="YWkT2PEXVsnUWsBG_KgA-300" value="" style="rounded=1;whiteSpace=wrap;html=1;arcSize=50;rotation=-45;fillColor=#F8CECC;strokeColor=none;" vertex="1" parent="1">
          <mxGeometry x="801" y="542.6700000000001" width="122" height="40" as="geometry" />
        </mxCell>
        <mxCell id="YWkT2PEXVsnUWsBG_KgA-302" value="" style="rounded=1;whiteSpace=wrap;html=1;arcSize=50;rotation=45;fillColor=#F8CECC;strokeColor=none;" vertex="1" parent="1">
          <mxGeometry x="739.52" y="540" width="124.46" height="40" as="geometry" />
        </mxCell>
        <mxCell id="YWkT2PEXVsnUWsBG_KgA-168" value="" style="rounded=1;whiteSpace=wrap;html=1;arcSize=50;rotation=-45;fillColor=#F8CECC;strokeColor=none;" vertex="1" parent="1">
          <mxGeometry x="881.2399999999998" y="159.69" width="122" height="40" as="geometry" />
        </mxCell>
        <mxCell id="YWkT2PEXVsnUWsBG_KgA-169" value="" style="rounded=1;whiteSpace=wrap;html=1;arcSize=50;rotation=45;fillColor=#F8CECC;strokeColor=none;" vertex="1" parent="1">
          <mxGeometry x="819.7599999999998" y="159.01999999999992" width="124.46" height="40" as="geometry" />
        </mxCell>
        <mxCell id="YWkT2PEXVsnUWsBG_KgA-166" value="" style="rounded=1;whiteSpace=wrap;html=1;arcSize=50;rotation=-45;fillColor=#F8CECC;strokeColor=none;" vertex="1" parent="1">
          <mxGeometry x="640.24" y="161.0900000000001" width="122" height="40" as="geometry" />
        </mxCell>
        <mxCell id="YWkT2PEXVsnUWsBG_KgA-167" value="" style="rounded=1;whiteSpace=wrap;html=1;arcSize=50;rotation=45;fillColor=#F8CECC;strokeColor=none;" vertex="1" parent="1">
          <mxGeometry x="700.6800000000001" y="160.14000000000004" width="124.97" height="40" as="geometry" />
        </mxCell>
        <mxCell id="YWkT2PEXVsnUWsBG_KgA-160" value="" style="rounded=1;whiteSpace=wrap;html=1;arcSize=50;rotation=-45;fillColor=#F8CECC;strokeColor=none;" vertex="1" parent="1">
          <mxGeometry x="681.48" y="661" width="122" height="40" as="geometry" />
        </mxCell>
        <mxCell id="YWkT2PEXVsnUWsBG_KgA-157" value="" style="rounded=1;whiteSpace=wrap;html=1;arcSize=50;rotation=45;fillColor=#F8CECC;strokeColor=none;" vertex="1" parent="1">
          <mxGeometry x="741.9199999999998" y="660.05" width="124.97" height="40" as="geometry" />
        </mxCell>
        <mxCell id="YWkT2PEXVsnUWsBG_KgA-156" value="" style="rounded=1;whiteSpace=wrap;html=1;rotation=-135;fillColor=#F8CECC;gradientColor=#FFFFFF;arcSize=50;strokeColor=none;" vertex="1" parent="1">
          <mxGeometry x="329.29" y="408.48" width="40" height="443.41" as="geometry" />
        </mxCell>
        <mxCell id="YWkT2PEXVsnUWsBG_KgA-155" value="" style="rounded=1;whiteSpace=wrap;html=1;rotation=45;fillColor=#F8CECC;gradientColor=#FFFFFF;arcSize=50;strokeColor=none;" vertex="1" parent="1">
          <mxGeometry x="135.66" y="519.81" width="40" height="369.05" as="geometry" />
        </mxCell>
        <mxCell id="U552cM0rFRxmbvw90yUP-81" value="&lt;font face=&quot;Times New Roman&quot;&gt;3&lt;/font&gt;" style="curved=1;endArrow=open;html=1;rounded=0;exitX=0.5;exitY=0;exitDx=0;exitDy=0;entryX=0.5;entryY=1;entryDx=0;entryDy=0;endFill=0;" parent="1" edge="1">
          <mxGeometry x="0.0025" width="50" height="50" relative="1" as="geometry">
            <mxPoint x="492.77" y="1099" as="sourcePoint" />
            <mxPoint x="492.77" y="1039" as="targetPoint" />
            <Array as="points" />
            <mxPoint as="offset" />
          </mxGeometry>
        </mxCell>
        <mxCell id="U552cM0rFRxmbvw90yUP-96" value="" style="ellipse;whiteSpace=wrap;html=1;aspect=fixed;strokeColor=none;" parent="1" vertex="1">
          <mxGeometry x="490" y="1055" width="5" height="5" as="geometry" />
        </mxCell>
        <mxCell id="U552cM0rFRxmbvw90yUP-77" value="&lt;font face=&quot;Times New Roman&quot;&gt;&amp;nbsp;2&amp;nbsp;&lt;/font&gt;" style="curved=1;endArrow=open;html=1;rounded=0;exitX=1;exitY=0.5;exitDx=0;exitDy=0;entryX=0;entryY=0.5;entryDx=0;entryDy=0;endFill=0;" parent="1" edge="1">
          <mxGeometry width="50" height="50" relative="1" as="geometry">
            <mxPoint x="503" y="1109.77" as="sourcePoint" />
            <mxPoint x="563" y="1109.77" as="targetPoint" />
            <Array as="points" />
          </mxGeometry>
        </mxCell>
        <mxCell id="U552cM0rFRxmbvw90yUP-95" value="" style="ellipse;whiteSpace=wrap;html=1;aspect=fixed;strokeColor=none;" parent="1" vertex="1">
          <mxGeometry x="517" y="1107" width="5" height="5" as="geometry" />
        </mxCell>
        <mxCell id="U552cM0rFRxmbvw90yUP-1" value="&lt;font face=&quot;Times New Roman&quot;&gt;&lt;b&gt;8&lt;/b&gt;&lt;/font&gt;" style="ellipse;whiteSpace=wrap;html=1;aspect=fixed;strokeWidth=0.75;fillColor=#E6E6E6;" parent="1" vertex="1">
          <mxGeometry x="350" y="920" width="20" height="20" as="geometry" />
        </mxCell>
        <mxCell id="U552cM0rFRxmbvw90yUP-2" value="&lt;font face=&quot;Times New Roman&quot;&gt;&lt;b&gt;16&lt;/b&gt;&lt;/font&gt;" style="ellipse;whiteSpace=wrap;html=1;aspect=fixed;strokeWidth=0.75;fillColor=#f8cecc;strokeColor=#b85450;" parent="1" vertex="1">
          <mxGeometry x="430" y="920" width="20" height="20" as="geometry" />
        </mxCell>
        <mxCell id="U552cM0rFRxmbvw90yUP-3" value="&lt;font face=&quot;Times New Roman&quot;&gt;&lt;b&gt;4&lt;/b&gt;&lt;/font&gt;" style="ellipse;whiteSpace=wrap;html=1;aspect=fixed;strokeWidth=0.75;fillColor=#E6E6E6;" parent="1" vertex="1">
          <mxGeometry x="270" y="920" width="20" height="20" as="geometry" />
        </mxCell>
        <mxCell id="U552cM0rFRxmbvw90yUP-4" value="&lt;font face=&quot;Times New Roman&quot;&gt;&lt;b&gt;2&lt;/b&gt;&lt;/font&gt;" style="ellipse;whiteSpace=wrap;html=1;aspect=fixed;strokeWidth=0.75;fillColor=#E6E6E6;" parent="1" vertex="1">
          <mxGeometry x="190" y="920" width="20" height="20" as="geometry" />
        </mxCell>
        <mxCell id="U552cM0rFRxmbvw90yUP-5" value="&lt;font face=&quot;Times New Roman&quot;&gt;&lt;b&gt;1&lt;/b&gt;&lt;/font&gt;" style="ellipse;whiteSpace=wrap;html=1;aspect=fixed;strokeWidth=0.75;fillColor=#f8cecc;strokeColor=#b85450;" parent="1" vertex="1">
          <mxGeometry x="110" y="920" width="20" height="20" as="geometry" />
        </mxCell>
        <mxCell id="U552cM0rFRxmbvw90yUP-6" value="&lt;font face=&quot;Times New Roman&quot;&gt;&amp;nbsp;2&amp;nbsp;&lt;/font&gt;" style="curved=1;endArrow=open;html=1;rounded=0;exitX=1;exitY=0.5;exitDx=0;exitDy=0;entryX=0;entryY=0.5;entryDx=0;entryDy=0;endFill=0;" parent="1" source="U552cM0rFRxmbvw90yUP-5" target="U552cM0rFRxmbvw90yUP-4" edge="1">
          <mxGeometry width="50" height="50" relative="1" as="geometry">
            <mxPoint x="200" y="890" as="sourcePoint" />
            <mxPoint x="250" y="840" as="targetPoint" />
            <Array as="points" />
          </mxGeometry>
        </mxCell>
        <mxCell id="U552cM0rFRxmbvw90yUP-13" value="&lt;font face=&quot;Times New Roman&quot;&gt;&lt;b&gt;4&lt;/b&gt;&lt;/font&gt;" style="ellipse;whiteSpace=wrap;html=1;aspect=fixed;strokeWidth=0.75;fillColor=#E6E6E6;" parent="1" vertex="1">
          <mxGeometry x="270" y="1140" width="20" height="20" as="geometry" />
        </mxCell>
        <mxCell id="U552cM0rFRxmbvw90yUP-14" value="&lt;font face=&quot;Times New Roman&quot;&gt;&lt;b&gt;2&lt;/b&gt;&lt;/font&gt;" style="ellipse;whiteSpace=wrap;html=1;aspect=fixed;strokeWidth=0.75;fillColor=#E6E6E6;" parent="1" vertex="1">
          <mxGeometry x="190" y="1140" width="20" height="20" as="geometry" />
        </mxCell>
        <mxCell id="U552cM0rFRxmbvw90yUP-15" value="&lt;font face=&quot;Times New Roman&quot;&gt;&lt;b&gt;1&lt;/b&gt;&lt;/font&gt;" style="ellipse;whiteSpace=wrap;html=1;aspect=fixed;strokeWidth=0.75;fillColor=#f8cecc;strokeColor=#b85450;" parent="1" vertex="1">
          <mxGeometry x="110" y="1140" width="20" height="20" as="geometry" />
        </mxCell>
        <mxCell id="U552cM0rFRxmbvw90yUP-20" value="&lt;font face=&quot;Times New Roman&quot;&gt;&lt;b&gt;12&lt;/b&gt;&lt;/font&gt;" style="ellipse;whiteSpace=wrap;html=1;aspect=fixed;strokeWidth=0.75;fillColor=#E6E6E6;" parent="1" vertex="1">
          <mxGeometry x="270" y="1060" width="20" height="20" as="geometry" />
        </mxCell>
        <mxCell id="U552cM0rFRxmbvw90yUP-21" value="&lt;font face=&quot;Times New Roman&quot;&gt;&lt;b&gt;6&lt;/b&gt;&lt;/font&gt;" style="ellipse;whiteSpace=wrap;html=1;aspect=fixed;strokeWidth=0.75;fillColor=#E6E6E6;" parent="1" vertex="1">
          <mxGeometry x="190" y="1060" width="20" height="20" as="geometry" />
        </mxCell>
        <mxCell id="U552cM0rFRxmbvw90yUP-22" value="&lt;font face=&quot;Times New Roman&quot;&gt;&lt;b&gt;3&lt;/b&gt;&lt;/font&gt;" style="ellipse;whiteSpace=wrap;html=1;aspect=fixed;strokeWidth=0.75;fillColor=#E6E6E6;" parent="1" vertex="1">
          <mxGeometry x="110" y="1060" width="20" height="20" as="geometry" />
        </mxCell>
        <mxCell id="U552cM0rFRxmbvw90yUP-23" value="&lt;font face=&quot;Times New Roman&quot;&gt;&lt;b&gt;36&lt;/b&gt;&lt;/font&gt;" style="ellipse;whiteSpace=wrap;html=1;aspect=fixed;strokeWidth=0.75;fillColor=#f8cecc;strokeColor=#b85450;" parent="1" vertex="1">
          <mxGeometry x="270" y="980" width="20" height="20" as="geometry" />
        </mxCell>
        <mxCell id="U552cM0rFRxmbvw90yUP-24" value="&lt;font face=&quot;Times New Roman&quot;&gt;&lt;b&gt;18&lt;/b&gt;&lt;/font&gt;" style="ellipse;whiteSpace=wrap;html=1;aspect=fixed;strokeWidth=0.75;fillColor=#E6E6E6;" parent="1" vertex="1">
          <mxGeometry x="190" y="980" width="20" height="20" as="geometry" />
        </mxCell>
        <mxCell id="U552cM0rFRxmbvw90yUP-25" value="&lt;font face=&quot;Times New Roman&quot;&gt;&lt;b&gt;9&lt;/b&gt;&lt;/font&gt;" style="ellipse;whiteSpace=wrap;html=1;aspect=fixed;strokeWidth=0.75;fillColor=#E6E6E6;" parent="1" vertex="1">
          <mxGeometry x="110" y="980" width="20" height="20" as="geometry" />
        </mxCell>
        <mxCell id="U552cM0rFRxmbvw90yUP-33" value="&lt;font face=&quot;Times New Roman&quot;&gt;3&lt;/font&gt;" style="curved=1;endArrow=open;html=1;rounded=0;exitX=0.5;exitY=0;exitDx=0;exitDy=0;entryX=0.5;entryY=1;entryDx=0;entryDy=0;endFill=0;" parent="1" source="U552cM0rFRxmbvw90yUP-20" target="U552cM0rFRxmbvw90yUP-23" edge="1">
          <mxGeometry x="0.0025" width="50" height="50" relative="1" as="geometry">
            <mxPoint x="273" y="1063" as="sourcePoint" />
            <mxPoint x="273" y="997" as="targetPoint" />
            <Array as="points" />
            <mxPoint as="offset" />
          </mxGeometry>
        </mxCell>
        <mxCell id="U552cM0rFRxmbvw90yUP-36" value="&lt;font face=&quot;Times New Roman&quot;&gt;&lt;b&gt;2&lt;/b&gt;&lt;/font&gt;" style="ellipse;whiteSpace=wrap;html=1;aspect=fixed;strokeWidth=0.75;fillColor=#E6E6E6;" parent="1" vertex="1">
          <mxGeometry x="563" y="1100" width="20" height="20" as="geometry" />
        </mxCell>
        <mxCell id="U552cM0rFRxmbvw90yUP-37" value="&lt;font face=&quot;Times New Roman&quot;&gt;&lt;b&gt;1&lt;/b&gt;&lt;/font&gt;" style="ellipse;whiteSpace=wrap;html=1;aspect=fixed;strokeWidth=0.75;fillColor=#f8cecc;strokeColor=#b85450;" parent="1" vertex="1">
          <mxGeometry x="483" y="1100" width="20" height="20" as="geometry" />
        </mxCell>
        <mxCell id="U552cM0rFRxmbvw90yUP-39" value="&lt;font face=&quot;Times New Roman&quot;&gt;&lt;b&gt;6&lt;/b&gt;&lt;/font&gt;" style="ellipse;whiteSpace=wrap;html=1;aspect=fixed;strokeWidth=0.75;fillColor=#E6E6E6;" parent="1" vertex="1">
          <mxGeometry x="563" y="1020" width="20" height="20" as="geometry" />
        </mxCell>
        <mxCell id="U552cM0rFRxmbvw90yUP-40" value="&lt;font face=&quot;Times New Roman&quot;&gt;&lt;b&gt;3&lt;/b&gt;&lt;/font&gt;" style="ellipse;whiteSpace=wrap;html=1;aspect=fixed;strokeWidth=0.75;fillColor=#E6E6E6;" parent="1" vertex="1">
          <mxGeometry x="483" y="1020" width="20" height="20" as="geometry" />
        </mxCell>
        <mxCell id="U552cM0rFRxmbvw90yUP-62" value="&lt;font face=&quot;Times New Roman&quot;&gt;&amp;nbsp;2&amp;nbsp;&lt;/font&gt;" style="curved=1;endArrow=open;html=1;rounded=0;exitX=1;exitY=0.5;exitDx=0;exitDy=0;entryX=0;entryY=0.5;entryDx=0;entryDy=0;endFill=0;" parent="1" edge="1">
          <mxGeometry width="50" height="50" relative="1" as="geometry">
            <mxPoint x="210" y="929.75" as="sourcePoint" />
            <mxPoint x="270" y="929.75" as="targetPoint" />
            <Array as="points" />
          </mxGeometry>
        </mxCell>
        <mxCell id="U552cM0rFRxmbvw90yUP-63" value="&lt;font face=&quot;Times New Roman&quot;&gt;&amp;nbsp;2&amp;nbsp;&lt;/font&gt;" style="curved=1;endArrow=open;html=1;rounded=0;exitX=1;exitY=0.5;exitDx=0;exitDy=0;entryX=0;entryY=0.5;entryDx=0;entryDy=0;endFill=0;" parent="1" edge="1">
          <mxGeometry width="50" height="50" relative="1" as="geometry">
            <mxPoint x="290" y="929.75" as="sourcePoint" />
            <mxPoint x="350" y="929.75" as="targetPoint" />
            <Array as="points" />
          </mxGeometry>
        </mxCell>
        <mxCell id="U552cM0rFRxmbvw90yUP-64" value="&lt;font face=&quot;Times New Roman&quot;&gt;&amp;nbsp;2&amp;nbsp;&lt;/font&gt;" style="curved=1;endArrow=open;html=1;rounded=0;exitX=1;exitY=0.5;exitDx=0;exitDy=0;entryX=0;entryY=0.5;entryDx=0;entryDy=0;endFill=0;" parent="1" edge="1">
          <mxGeometry width="50" height="50" relative="1" as="geometry">
            <mxPoint x="370" y="929.75" as="sourcePoint" />
            <mxPoint x="430" y="929.75" as="targetPoint" />
            <Array as="points" />
          </mxGeometry>
        </mxCell>
        <mxCell id="U552cM0rFRxmbvw90yUP-65" value="&lt;font face=&quot;Times New Roman&quot;&gt;&amp;nbsp;2&amp;nbsp;&lt;/font&gt;" style="curved=1;endArrow=open;html=1;rounded=0;exitX=1;exitY=0.5;exitDx=0;exitDy=0;entryX=0;entryY=0.5;entryDx=0;entryDy=0;endFill=0;" parent="1" edge="1">
          <mxGeometry width="50" height="50" relative="1" as="geometry">
            <mxPoint x="130" y="1149.75" as="sourcePoint" />
            <mxPoint x="190" y="1149.75" as="targetPoint" />
            <Array as="points" />
          </mxGeometry>
        </mxCell>
        <mxCell id="U552cM0rFRxmbvw90yUP-66" value="&lt;font face=&quot;Times New Roman&quot;&gt;&amp;nbsp;2&amp;nbsp;&lt;/font&gt;" style="curved=1;endArrow=open;html=1;rounded=0;exitX=1;exitY=0.5;exitDx=0;exitDy=0;entryX=0;entryY=0.5;entryDx=0;entryDy=0;endFill=0;" parent="1" edge="1">
          <mxGeometry width="50" height="50" relative="1" as="geometry">
            <mxPoint x="210" y="1149.75" as="sourcePoint" />
            <mxPoint x="270" y="1149.75" as="targetPoint" />
            <Array as="points" />
          </mxGeometry>
        </mxCell>
        <mxCell id="U552cM0rFRxmbvw90yUP-67" value="&lt;font face=&quot;Times New Roman&quot;&gt;&amp;nbsp;2&amp;nbsp;&lt;/font&gt;" style="curved=1;endArrow=open;html=1;rounded=0;exitX=1;exitY=0.5;exitDx=0;exitDy=0;entryX=0;entryY=0.5;entryDx=0;entryDy=0;endFill=0;" parent="1" edge="1">
          <mxGeometry width="50" height="50" relative="1" as="geometry">
            <mxPoint x="130" y="1069.75" as="sourcePoint" />
            <mxPoint x="190" y="1069.75" as="targetPoint" />
            <Array as="points" />
          </mxGeometry>
        </mxCell>
        <mxCell id="U552cM0rFRxmbvw90yUP-68" value="&lt;font face=&quot;Times New Roman&quot;&gt;&amp;nbsp;2&amp;nbsp;&lt;/font&gt;" style="curved=1;endArrow=open;html=1;rounded=0;exitX=1;exitY=0.5;exitDx=0;exitDy=0;entryX=0;entryY=0.5;entryDx=0;entryDy=0;endFill=0;" parent="1" edge="1">
          <mxGeometry width="50" height="50" relative="1" as="geometry">
            <mxPoint x="210" y="1069.75" as="sourcePoint" />
            <mxPoint x="270" y="1069.75" as="targetPoint" />
            <Array as="points" />
          </mxGeometry>
        </mxCell>
        <mxCell id="U552cM0rFRxmbvw90yUP-69" value="&lt;font face=&quot;Times New Roman&quot;&gt;&amp;nbsp;2&amp;nbsp;&lt;/font&gt;" style="curved=1;endArrow=open;html=1;rounded=0;exitX=1;exitY=0.5;exitDx=0;exitDy=0;entryX=0;entryY=0.5;entryDx=0;entryDy=0;endFill=0;" parent="1" edge="1">
          <mxGeometry width="50" height="50" relative="1" as="geometry">
            <mxPoint x="130" y="989.75" as="sourcePoint" />
            <mxPoint x="190" y="989.75" as="targetPoint" />
            <Array as="points" />
          </mxGeometry>
        </mxCell>
        <mxCell id="U552cM0rFRxmbvw90yUP-70" value="&lt;font face=&quot;Times New Roman&quot;&gt;&amp;nbsp;2&amp;nbsp;&lt;/font&gt;" style="curved=1;endArrow=open;html=1;rounded=0;exitX=1;exitY=0.5;exitDx=0;exitDy=0;entryX=0;entryY=0.5;entryDx=0;entryDy=0;endFill=0;" parent="1" edge="1">
          <mxGeometry width="50" height="50" relative="1" as="geometry">
            <mxPoint x="210" y="989.75" as="sourcePoint" />
            <mxPoint x="270" y="989.75" as="targetPoint" />
            <Array as="points" />
          </mxGeometry>
        </mxCell>
        <mxCell id="U552cM0rFRxmbvw90yUP-71" value="&lt;font face=&quot;Times New Roman&quot;&gt;3&lt;/font&gt;" style="curved=1;endArrow=open;html=1;rounded=0;exitX=0.5;exitY=0;exitDx=0;exitDy=0;entryX=0.5;entryY=1;entryDx=0;entryDy=0;endFill=0;" parent="1" edge="1">
          <mxGeometry x="0.0025" width="50" height="50" relative="1" as="geometry">
            <mxPoint x="199.75" y="1060" as="sourcePoint" />
            <mxPoint x="199.75" y="1000" as="targetPoint" />
            <Array as="points" />
            <mxPoint as="offset" />
          </mxGeometry>
        </mxCell>
        <mxCell id="U552cM0rFRxmbvw90yUP-72" value="&lt;font face=&quot;Times New Roman&quot;&gt;3&lt;/font&gt;" style="curved=1;endArrow=open;html=1;rounded=0;exitX=0.5;exitY=0;exitDx=0;exitDy=0;entryX=0.5;entryY=1;entryDx=0;entryDy=0;endFill=0;" parent="1" edge="1">
          <mxGeometry x="0.0025" width="50" height="50" relative="1" as="geometry">
            <mxPoint x="119.75" y="1060" as="sourcePoint" />
            <mxPoint x="119.75" y="1000" as="targetPoint" />
            <Array as="points" />
            <mxPoint as="offset" />
          </mxGeometry>
        </mxCell>
        <mxCell id="U552cM0rFRxmbvw90yUP-73" value="&lt;font face=&quot;Times New Roman&quot;&gt;3&lt;/font&gt;" style="curved=1;endArrow=open;html=1;rounded=0;exitX=0.5;exitY=0;exitDx=0;exitDy=0;entryX=0.5;entryY=1;entryDx=0;entryDy=0;endFill=0;" parent="1" edge="1">
          <mxGeometry x="0.0025" width="50" height="50" relative="1" as="geometry">
            <mxPoint x="119.75" y="1139" as="sourcePoint" />
            <mxPoint x="119.75" y="1079" as="targetPoint" />
            <Array as="points" />
            <mxPoint as="offset" />
          </mxGeometry>
        </mxCell>
        <mxCell id="U552cM0rFRxmbvw90yUP-74" value="&lt;font face=&quot;Times New Roman&quot;&gt;3&lt;/font&gt;" style="curved=1;endArrow=open;html=1;rounded=0;exitX=0.5;exitY=0;exitDx=0;exitDy=0;entryX=0.5;entryY=1;entryDx=0;entryDy=0;endFill=0;" parent="1" edge="1">
          <mxGeometry x="0.0025" width="50" height="50" relative="1" as="geometry">
            <mxPoint x="199.75" y="1140" as="sourcePoint" />
            <mxPoint x="199.75" y="1080" as="targetPoint" />
            <Array as="points" />
            <mxPoint as="offset" />
          </mxGeometry>
        </mxCell>
        <mxCell id="U552cM0rFRxmbvw90yUP-75" value="&lt;font face=&quot;Times New Roman&quot;&gt;3&lt;/font&gt;" style="curved=1;endArrow=open;html=1;rounded=0;exitX=0.5;exitY=0;exitDx=0;exitDy=0;entryX=0.5;entryY=1;entryDx=0;entryDy=0;endFill=0;" parent="1" edge="1">
          <mxGeometry x="0.0025" width="50" height="50" relative="1" as="geometry">
            <mxPoint x="279.75" y="1139" as="sourcePoint" />
            <mxPoint x="279.75" y="1079" as="targetPoint" />
            <Array as="points" />
            <mxPoint as="offset" />
          </mxGeometry>
        </mxCell>
        <mxCell id="U552cM0rFRxmbvw90yUP-76" value="&lt;font face=&quot;Times New Roman&quot;&gt;&amp;nbsp;2&amp;nbsp;&lt;/font&gt;" style="curved=1;endArrow=open;html=1;rounded=0;exitX=1;exitY=0.5;exitDx=0;exitDy=0;entryX=0;entryY=0.5;entryDx=0;entryDy=0;endFill=0;" parent="1" edge="1">
          <mxGeometry width="50" height="50" relative="1" as="geometry">
            <mxPoint x="503" y="1029.62" as="sourcePoint" />
            <mxPoint x="563" y="1029.62" as="targetPoint" />
            <Array as="points" />
          </mxGeometry>
        </mxCell>
        <mxCell id="U552cM0rFRxmbvw90yUP-80" value="&lt;font face=&quot;Times New Roman&quot;&gt;3&lt;/font&gt;" style="curved=1;endArrow=open;html=1;rounded=0;exitX=0.5;exitY=0;exitDx=0;exitDy=0;entryX=0.5;entryY=1;entryDx=0;entryDy=0;endFill=0;" parent="1" edge="1">
          <mxGeometry x="0.0025" width="50" height="50" relative="1" as="geometry">
            <mxPoint x="572.77" y="1100" as="sourcePoint" />
            <mxPoint x="572.77" y="1040" as="targetPoint" />
            <Array as="points" />
            <mxPoint as="offset" />
          </mxGeometry>
        </mxCell>
        <mxCell id="U552cM0rFRxmbvw90yUP-83" value="&lt;font face=&quot;Times New Roman&quot;&gt;&lt;b&gt;10&lt;/b&gt;&lt;/font&gt;" style="ellipse;whiteSpace=wrap;html=1;aspect=fixed;strokeWidth=0.75;fillColor=#E6E6E6;" parent="1" vertex="1">
          <mxGeometry x="510" y="1128" width="20" height="20" as="geometry" />
        </mxCell>
        <mxCell id="U552cM0rFRxmbvw90yUP-84" value="&lt;font face=&quot;Times New Roman&quot;&gt;&lt;b&gt;5&lt;/b&gt;&lt;/font&gt;" style="ellipse;whiteSpace=wrap;html=1;aspect=fixed;strokeWidth=0.75;fillColor=#E6E6E6;" parent="1" vertex="1">
          <mxGeometry x="430" y="1128" width="20" height="20" as="geometry" />
        </mxCell>
        <mxCell id="U552cM0rFRxmbvw90yUP-85" value="&lt;font face=&quot;Times New Roman&quot;&gt;&lt;b&gt;30&lt;/b&gt;&lt;/font&gt;" style="ellipse;whiteSpace=wrap;html=1;aspect=fixed;strokeWidth=0.75;fillColor=#E6E6E6;" parent="1" vertex="1">
          <mxGeometry x="510" y="1048" width="20" height="20" as="geometry" />
        </mxCell>
        <mxCell id="U552cM0rFRxmbvw90yUP-86" value="&lt;font face=&quot;Times New Roman&quot;&gt;&lt;b&gt;15&lt;/b&gt;&lt;/font&gt;" style="ellipse;whiteSpace=wrap;html=1;aspect=fixed;strokeWidth=0.75;fillColor=#E6E6E6;" parent="1" vertex="1">
          <mxGeometry x="430" y="1048" width="20" height="20" as="geometry" />
        </mxCell>
        <mxCell id="U552cM0rFRxmbvw90yUP-87" value="&lt;font face=&quot;Times New Roman&quot;&gt;&amp;nbsp;2&amp;nbsp;&lt;/font&gt;" style="curved=1;endArrow=open;html=1;rounded=0;exitX=1;exitY=0.5;exitDx=0;exitDy=0;entryX=0;entryY=0.5;entryDx=0;entryDy=0;endFill=0;" parent="1" edge="1">
          <mxGeometry width="50" height="50" relative="1" as="geometry">
            <mxPoint x="450" y="1057.62" as="sourcePoint" />
            <mxPoint x="510" y="1057.62" as="targetPoint" />
            <Array as="points" />
          </mxGeometry>
        </mxCell>
        <mxCell id="U552cM0rFRxmbvw90yUP-88" value="&lt;font face=&quot;Times New Roman&quot;&gt;&amp;nbsp;2&amp;nbsp;&lt;/font&gt;" style="curved=1;endArrow=open;html=1;rounded=0;exitX=1;exitY=0.5;exitDx=0;exitDy=0;entryX=0;entryY=0.5;entryDx=0;entryDy=0;endFill=0;" parent="1" edge="1">
          <mxGeometry width="50" height="50" relative="1" as="geometry">
            <mxPoint x="450" y="1137.77" as="sourcePoint" />
            <mxPoint x="510" y="1137.77" as="targetPoint" />
            <Array as="points" />
          </mxGeometry>
        </mxCell>
        <mxCell id="U552cM0rFRxmbvw90yUP-89" value="&lt;font face=&quot;Times New Roman&quot;&gt;3&lt;/font&gt;" style="curved=1;endArrow=open;html=1;rounded=0;exitX=0.5;exitY=0;exitDx=0;exitDy=0;entryX=0.5;entryY=1;entryDx=0;entryDy=0;endFill=0;" parent="1" edge="1">
          <mxGeometry x="0.0025" width="50" height="50" relative="1" as="geometry">
            <mxPoint x="519.77" y="1128" as="sourcePoint" />
            <mxPoint x="519.77" y="1068" as="targetPoint" />
            <Array as="points" />
            <mxPoint as="offset" />
          </mxGeometry>
        </mxCell>
        <mxCell id="U552cM0rFRxmbvw90yUP-90" value="&lt;font face=&quot;Times New Roman&quot;&gt;3&lt;/font&gt;" style="curved=1;endArrow=open;html=1;rounded=0;exitX=0.5;exitY=0;exitDx=0;exitDy=0;entryX=0.5;entryY=1;entryDx=0;entryDy=0;endFill=0;" parent="1" edge="1">
          <mxGeometry x="0.0025" width="50" height="50" relative="1" as="geometry">
            <mxPoint x="439.77" y="1127" as="sourcePoint" />
            <mxPoint x="439.77" y="1067" as="targetPoint" />
            <Array as="points" />
            <mxPoint as="offset" />
          </mxGeometry>
        </mxCell>
        <mxCell id="U552cM0rFRxmbvw90yUP-91" value="&lt;font face=&quot;Times New Roman&quot;&gt;&amp;nbsp;5&amp;nbsp;&lt;/font&gt;" style="curved=1;endArrow=open;html=1;rounded=0;endFill=0;exitX=0.056;exitY=0.745;exitDx=0;exitDy=0;exitPerimeter=0;entryX=0.918;entryY=0.252;entryDx=0;entryDy=0;entryPerimeter=0;" parent="1" source="U552cM0rFRxmbvw90yUP-37" target="U552cM0rFRxmbvw90yUP-84" edge="1">
          <mxGeometry width="50" height="50" relative="1" as="geometry">
            <mxPoint x="393" y="1110" as="sourcePoint" />
            <mxPoint x="453" y="1110" as="targetPoint" />
            <Array as="points" />
          </mxGeometry>
        </mxCell>
        <mxCell id="U552cM0rFRxmbvw90yUP-92" value="&lt;font face=&quot;Times New Roman&quot;&gt;&amp;nbsp;5&amp;nbsp;&lt;/font&gt;" style="curved=1;endArrow=open;html=1;rounded=0;endFill=0;exitX=0.056;exitY=0.745;exitDx=0;exitDy=0;exitPerimeter=0;entryX=0.918;entryY=0.252;entryDx=0;entryDy=0;entryPerimeter=0;" parent="1" edge="1">
          <mxGeometry width="50" height="50" relative="1" as="geometry">
            <mxPoint x="565" y="1116" as="sourcePoint" />
            <mxPoint x="529" y="1134" as="targetPoint" />
            <Array as="points" />
          </mxGeometry>
        </mxCell>
        <mxCell id="U552cM0rFRxmbvw90yUP-93" value="&lt;font face=&quot;Times New Roman&quot;&gt;&amp;nbsp;5&amp;nbsp;&lt;/font&gt;" style="curved=1;endArrow=open;html=1;rounded=0;endFill=0;exitX=0.056;exitY=0.745;exitDx=0;exitDy=0;exitPerimeter=0;entryX=0.918;entryY=0.252;entryDx=0;entryDy=0;entryPerimeter=0;" parent="1" edge="1">
          <mxGeometry width="50" height="50" relative="1" as="geometry">
            <mxPoint x="483" y="1033" as="sourcePoint" />
            <mxPoint x="447" y="1051" as="targetPoint" />
            <Array as="points" />
          </mxGeometry>
        </mxCell>
        <mxCell id="U552cM0rFRxmbvw90yUP-94" value="&lt;font face=&quot;Times New Roman&quot;&gt;&amp;nbsp;5&amp;nbsp;&lt;/font&gt;" style="curved=1;endArrow=open;html=1;rounded=0;endFill=0;exitX=0.056;exitY=0.745;exitDx=0;exitDy=0;exitPerimeter=0;entryX=0.918;entryY=0.252;entryDx=0;entryDy=0;entryPerimeter=0;" parent="1" edge="1">
          <mxGeometry width="50" height="50" relative="1" as="geometry">
            <mxPoint x="564" y="1034" as="sourcePoint" />
            <mxPoint x="528" y="1052" as="targetPoint" />
            <Array as="points" />
          </mxGeometry>
        </mxCell>
        <mxCell id="U552cM0rFRxmbvw90yUP-98" value="" style="ellipse;whiteSpace=wrap;html=1;aspect=fixed;strokeColor=none;" parent="1" vertex="1">
          <mxGeometry x="570" y="1055" width="5" height="5" as="geometry" />
        </mxCell>
        <mxCell id="U552cM0rFRxmbvw90yUP-99" value="&lt;font face=&quot;Times New Roman&quot;&gt;&amp;nbsp;2&amp;nbsp;&lt;/font&gt;" style="curved=1;endArrow=open;html=1;rounded=0;exitX=1;exitY=0.5;exitDx=0;exitDy=0;entryX=0;entryY=0.5;entryDx=0;entryDy=0;endFill=0;" parent="1" edge="1">
          <mxGeometry width="50" height="50" relative="1" as="geometry">
            <mxPoint x="583" y="1109.77" as="sourcePoint" />
            <mxPoint x="643" y="1109.77" as="targetPoint" />
            <Array as="points" />
          </mxGeometry>
        </mxCell>
        <mxCell id="U552cM0rFRxmbvw90yUP-100" value="" style="ellipse;whiteSpace=wrap;html=1;aspect=fixed;strokeColor=none;" parent="1" vertex="1">
          <mxGeometry x="597" y="1107" width="5" height="5" as="geometry" />
        </mxCell>
        <mxCell id="U552cM0rFRxmbvw90yUP-101" value="&lt;font face=&quot;Times New Roman&quot;&gt;&lt;b&gt;4&lt;/b&gt;&lt;/font&gt;" style="ellipse;whiteSpace=wrap;html=1;aspect=fixed;strokeWidth=0.75;fillColor=#E6E6E6;" parent="1" vertex="1">
          <mxGeometry x="643" y="1100" width="20" height="20" as="geometry" />
        </mxCell>
        <mxCell id="U552cM0rFRxmbvw90yUP-103" value="&lt;font face=&quot;Times New Roman&quot;&gt;&lt;b&gt;12&lt;/b&gt;&lt;/font&gt;" style="ellipse;whiteSpace=wrap;html=1;aspect=fixed;strokeWidth=0.75;fillColor=#E6E6E6;" parent="1" vertex="1">
          <mxGeometry x="643" y="1020" width="20" height="20" as="geometry" />
        </mxCell>
        <mxCell id="U552cM0rFRxmbvw90yUP-105" value="&lt;font face=&quot;Times New Roman&quot;&gt;&amp;nbsp;2&amp;nbsp;&lt;/font&gt;" style="curved=1;endArrow=open;html=1;rounded=0;exitX=1;exitY=0.5;exitDx=0;exitDy=0;entryX=0;entryY=0.5;entryDx=0;entryDy=0;endFill=0;" parent="1" edge="1">
          <mxGeometry width="50" height="50" relative="1" as="geometry">
            <mxPoint x="583" y="1029.62" as="sourcePoint" />
            <mxPoint x="643" y="1029.62" as="targetPoint" />
            <Array as="points" />
          </mxGeometry>
        </mxCell>
        <mxCell id="U552cM0rFRxmbvw90yUP-106" value="&lt;font face=&quot;Times New Roman&quot;&gt;3&lt;/font&gt;" style="curved=1;endArrow=open;html=1;rounded=0;exitX=0.5;exitY=0;exitDx=0;exitDy=0;entryX=0.5;entryY=1;entryDx=0;entryDy=0;endFill=0;" parent="1" edge="1">
          <mxGeometry x="0.0025" width="50" height="50" relative="1" as="geometry">
            <mxPoint x="652.77" y="1100" as="sourcePoint" />
            <mxPoint x="652.77" y="1040" as="targetPoint" />
            <Array as="points" />
            <mxPoint as="offset" />
          </mxGeometry>
        </mxCell>
        <mxCell id="U552cM0rFRxmbvw90yUP-107" value="&lt;font face=&quot;Times New Roman&quot;&gt;&lt;b&gt;20&lt;/b&gt;&lt;/font&gt;" style="ellipse;whiteSpace=wrap;html=1;aspect=fixed;strokeWidth=0.75;fillColor=#E6E6E6;" parent="1" vertex="1">
          <mxGeometry x="590" y="1128" width="20" height="20" as="geometry" />
        </mxCell>
        <mxCell id="U552cM0rFRxmbvw90yUP-109" value="&lt;font face=&quot;Times New Roman&quot;&gt;&lt;b&gt;60&lt;/b&gt;&lt;/font&gt;" style="ellipse;whiteSpace=wrap;html=1;aspect=fixed;strokeWidth=0.75;fillColor=#f8cecc;strokeColor=#b85450;" parent="1" vertex="1">
          <mxGeometry x="590" y="1048" width="20" height="20" as="geometry" />
        </mxCell>
        <mxCell id="U552cM0rFRxmbvw90yUP-111" value="&lt;font face=&quot;Times New Roman&quot;&gt;&amp;nbsp;2&amp;nbsp;&lt;/font&gt;" style="curved=1;endArrow=open;html=1;rounded=0;exitX=1;exitY=0.5;exitDx=0;exitDy=0;entryX=0;entryY=0.5;entryDx=0;entryDy=0;endFill=0;" parent="1" edge="1">
          <mxGeometry width="50" height="50" relative="1" as="geometry">
            <mxPoint x="530" y="1057.62" as="sourcePoint" />
            <mxPoint x="590" y="1057.62" as="targetPoint" />
            <Array as="points" />
          </mxGeometry>
        </mxCell>
        <mxCell id="U552cM0rFRxmbvw90yUP-112" value="&lt;font face=&quot;Times New Roman&quot;&gt;&amp;nbsp;2&amp;nbsp;&lt;/font&gt;" style="curved=1;endArrow=open;html=1;rounded=0;exitX=1;exitY=0.5;exitDx=0;exitDy=0;entryX=0;entryY=0.5;entryDx=0;entryDy=0;endFill=0;" parent="1" edge="1">
          <mxGeometry width="50" height="50" relative="1" as="geometry">
            <mxPoint x="530" y="1137.77" as="sourcePoint" />
            <mxPoint x="590" y="1137.77" as="targetPoint" />
            <Array as="points" />
          </mxGeometry>
        </mxCell>
        <mxCell id="U552cM0rFRxmbvw90yUP-113" value="&lt;font face=&quot;Times New Roman&quot;&gt;3&lt;/font&gt;" style="curved=1;endArrow=open;html=1;rounded=0;exitX=0.5;exitY=0;exitDx=0;exitDy=0;entryX=0.5;entryY=1;entryDx=0;entryDy=0;endFill=0;" parent="1" edge="1">
          <mxGeometry x="0.0025" width="50" height="50" relative="1" as="geometry">
            <mxPoint x="599.77" y="1128" as="sourcePoint" />
            <mxPoint x="599.77" y="1068" as="targetPoint" />
            <Array as="points" />
            <mxPoint as="offset" />
          </mxGeometry>
        </mxCell>
        <mxCell id="U552cM0rFRxmbvw90yUP-116" value="&lt;font face=&quot;Times New Roman&quot;&gt;&amp;nbsp;5&amp;nbsp;&lt;/font&gt;" style="curved=1;endArrow=open;html=1;rounded=0;endFill=0;exitX=0.056;exitY=0.745;exitDx=0;exitDy=0;exitPerimeter=0;entryX=0.918;entryY=0.252;entryDx=0;entryDy=0;entryPerimeter=0;" parent="1" edge="1">
          <mxGeometry width="50" height="50" relative="1" as="geometry">
            <mxPoint x="645" y="1116" as="sourcePoint" />
            <mxPoint x="609" y="1134" as="targetPoint" />
            <Array as="points" />
          </mxGeometry>
        </mxCell>
        <mxCell id="U552cM0rFRxmbvw90yUP-118" value="&lt;font face=&quot;Times New Roman&quot;&gt;&amp;nbsp;5&amp;nbsp;&lt;/font&gt;" style="curved=1;endArrow=open;html=1;rounded=0;endFill=0;exitX=0.056;exitY=0.745;exitDx=0;exitDy=0;exitPerimeter=0;entryX=0.918;entryY=0.252;entryDx=0;entryDy=0;entryPerimeter=0;" parent="1" edge="1">
          <mxGeometry width="50" height="50" relative="1" as="geometry">
            <mxPoint x="644" y="1034" as="sourcePoint" />
            <mxPoint x="608" y="1052" as="targetPoint" />
            <Array as="points" />
          </mxGeometry>
        </mxCell>
        <mxCell id="YWkT2PEXVsnUWsBG_KgA-1" value="&lt;font face=&quot;Times New Roman&quot;&gt;&lt;b&gt;F&lt;/b&gt;&lt;/font&gt;" style="ellipse;whiteSpace=wrap;html=1;aspect=fixed;strokeWidth=0.75;fillColor=#E6E6E6;" vertex="1" parent="1">
          <mxGeometry x="280" y="20.000000000000004" width="20" height="20" as="geometry" />
        </mxCell>
        <mxCell id="YWkT2PEXVsnUWsBG_KgA-2" value="&lt;font face=&quot;Times New Roman&quot;&gt;&lt;b&gt;C&lt;/b&gt;&lt;/font&gt;" style="ellipse;whiteSpace=wrap;html=1;aspect=fixed;strokeWidth=0.75;fillColor=#E6E6E6;" vertex="1" parent="1">
          <mxGeometry x="220" y="80" width="20" height="20" as="geometry" />
        </mxCell>
        <mxCell id="YWkT2PEXVsnUWsBG_KgA-3" value="&lt;font face=&quot;Times New Roman&quot;&gt;&lt;b&gt;A&lt;/b&gt;&lt;/font&gt;" style="ellipse;whiteSpace=wrap;html=1;aspect=fixed;strokeWidth=0.75;fillColor=#E6E6E6;" vertex="1" parent="1">
          <mxGeometry x="340" y="80" width="20" height="20" as="geometry" />
        </mxCell>
        <mxCell id="YWkT2PEXVsnUWsBG_KgA-4" value="&lt;font face=&quot;Times New Roman&quot;&gt;&lt;b&gt;G&lt;/b&gt;&lt;/font&gt;" style="ellipse;whiteSpace=wrap;html=1;aspect=fixed;strokeWidth=0.75;fillColor=#E6E6E6;" vertex="1" parent="1">
          <mxGeometry x="160" y="140" width="20" height="20" as="geometry" />
        </mxCell>
        <mxCell id="YWkT2PEXVsnUWsBG_KgA-5" value="&lt;font face=&quot;Times New Roman&quot;&gt;&lt;b&gt;E&lt;/b&gt;&lt;/font&gt;" style="ellipse;whiteSpace=wrap;html=1;aspect=fixed;strokeWidth=0.75;fillColor=#E6E6E6;" vertex="1" parent="1">
          <mxGeometry x="280" y="140" width="20" height="20" as="geometry" />
        </mxCell>
        <mxCell id="YWkT2PEXVsnUWsBG_KgA-6" value="&lt;font face=&quot;Times New Roman&quot;&gt;&lt;b&gt;C&lt;sup&gt;♯&lt;/sup&gt;&lt;/b&gt;&lt;/font&gt;" style="ellipse;whiteSpace=wrap;html=1;aspect=fixed;strokeWidth=0.75;fillColor=#E6E6E6;" vertex="1" parent="1">
          <mxGeometry x="400" y="140" width="20" height="20" as="geometry" />
        </mxCell>
        <mxCell id="YWkT2PEXVsnUWsBG_KgA-7" value="&lt;font face=&quot;Times New Roman&quot;&gt;&lt;b&gt;D&lt;/b&gt;&lt;/font&gt;" style="ellipse;whiteSpace=wrap;html=1;aspect=fixed;strokeWidth=0.75;fillColor=#E6E6E6;" vertex="1" parent="1">
          <mxGeometry x="100" y="200" width="20" height="20" as="geometry" />
        </mxCell>
        <mxCell id="YWkT2PEXVsnUWsBG_KgA-8" value="&lt;font face=&quot;Times New Roman&quot;&gt;&lt;b&gt;B&lt;/b&gt;&lt;/font&gt;" style="ellipse;whiteSpace=wrap;html=1;aspect=fixed;strokeWidth=0.75;fillColor=#E6E6E6;" vertex="1" parent="1">
          <mxGeometry x="220" y="200" width="20" height="20" as="geometry" />
        </mxCell>
        <mxCell id="YWkT2PEXVsnUWsBG_KgA-9" value="&lt;font face=&quot;Times New Roman&quot;&gt;&lt;b&gt;G&lt;sup&gt;♯&lt;/sup&gt;&lt;/b&gt;&lt;/font&gt;" style="ellipse;whiteSpace=wrap;html=1;aspect=fixed;strokeWidth=0.75;fillColor=#E6E6E6;" vertex="1" parent="1">
          <mxGeometry x="340" y="200" width="20" height="20" as="geometry" />
        </mxCell>
        <mxCell id="YWkT2PEXVsnUWsBG_KgA-11" value="&lt;font face=&quot;Times New Roman&quot;&gt;&lt;b&gt;D&lt;sup&gt;♯&lt;/sup&gt;&lt;/b&gt;&lt;/font&gt;" style="ellipse;whiteSpace=wrap;html=1;aspect=fixed;strokeWidth=0.75;fillColor=#E6E6E6;" vertex="1" parent="1">
          <mxGeometry x="280" y="259.99999999999994" width="20" height="20" as="geometry" />
        </mxCell>
        <mxCell id="YWkT2PEXVsnUWsBG_KgA-12" value="&lt;font face=&quot;Times New Roman&quot;&gt;&lt;b&gt;A&lt;sup&gt;♯&lt;/sup&gt;&lt;/b&gt;&lt;/font&gt;" style="ellipse;whiteSpace=wrap;html=1;aspect=fixed;strokeWidth=0.75;fillColor=#E6E6E6;" vertex="1" parent="1">
          <mxGeometry x="220" y="319.99999999999994" width="20" height="20" as="geometry" />
        </mxCell>
        <mxCell id="YWkT2PEXVsnUWsBG_KgA-13" value="&lt;font face=&quot;Times New Roman&quot;&gt;&lt;b&gt;F&lt;sup&gt;♯&lt;/sup&gt;&lt;/b&gt;&lt;/font&gt;" style="ellipse;whiteSpace=wrap;html=1;aspect=fixed;strokeWidth=0.75;fillColor=#E6E6E6;" vertex="1" parent="1">
          <mxGeometry x="160" y="259.99999999999994" width="20" height="20" as="geometry" />
        </mxCell>
        <mxCell id="YWkT2PEXVsnUWsBG_KgA-14" value="&lt;font style=&quot;font-size: 9px;&quot; face=&quot;Times New Roman&quot;&gt;&amp;nbsp;P5&lt;/font&gt;" style="curved=1;endArrow=open;html=1;rounded=0;entryX=1;entryY=0;entryDx=0;entryDy=0;endFill=0;" edge="1" parent="1" target="YWkT2PEXVsnUWsBG_KgA-2">
          <mxGeometry width="50" height="50" relative="1" as="geometry">
            <mxPoint x="283" y="37" as="sourcePoint" />
            <mxPoint x="180" y="369.99999999999994" as="targetPoint" />
            <Array as="points" />
          </mxGeometry>
        </mxCell>
        <mxCell id="YWkT2PEXVsnUWsBG_KgA-15" value="&lt;font style=&quot;font-size: 9px;&quot; face=&quot;Times New Roman&quot;&gt;&amp;nbsp;P5&lt;/font&gt;" style="curved=1;endArrow=open;html=1;rounded=0;exitX=0;exitY=1;exitDx=0;exitDy=0;endFill=0;entryX=1;entryY=0;entryDx=0;entryDy=0;" edge="1" parent="1" source="YWkT2PEXVsnUWsBG_KgA-2" target="YWkT2PEXVsnUWsBG_KgA-4">
          <mxGeometry width="50" height="50" relative="1" as="geometry">
            <mxPoint x="240" y="80" as="sourcePoint" />
            <mxPoint x="230" y="111" as="targetPoint" />
            <Array as="points" />
          </mxGeometry>
        </mxCell>
        <mxCell id="YWkT2PEXVsnUWsBG_KgA-16" value="&lt;font style=&quot;font-size: 9px;&quot; face=&quot;Times New Roman&quot;&gt;&amp;nbsp;P5&lt;/font&gt;" style="curved=1;endArrow=open;html=1;rounded=0;endFill=0;entryX=1;entryY=0;entryDx=0;entryDy=0;exitX=0;exitY=1;exitDx=0;exitDy=0;" edge="1" parent="1" source="YWkT2PEXVsnUWsBG_KgA-4" target="YWkT2PEXVsnUWsBG_KgA-7">
          <mxGeometry width="50" height="50" relative="1" as="geometry">
            <mxPoint x="190" y="120" as="sourcePoint" />
            <mxPoint x="190" y="160" as="targetPoint" />
            <Array as="points" />
          </mxGeometry>
        </mxCell>
        <mxCell id="YWkT2PEXVsnUWsBG_KgA-17" value="&lt;font style=&quot;font-size: 9px;&quot; face=&quot;Times New Roman&quot;&gt;&amp;nbsp;P5&lt;/font&gt;" style="curved=1;endArrow=open;html=1;rounded=0;entryX=1;entryY=0;entryDx=0;entryDy=0;endFill=0;exitX=0;exitY=1;exitDx=0;exitDy=0;" edge="1" parent="1" source="YWkT2PEXVsnUWsBG_KgA-3" target="YWkT2PEXVsnUWsBG_KgA-5">
          <mxGeometry width="50" height="50" relative="1" as="geometry">
            <mxPoint x="306" y="70" as="sourcePoint" />
            <mxPoint x="280" y="96" as="targetPoint" />
            <Array as="points" />
          </mxGeometry>
        </mxCell>
        <mxCell id="YWkT2PEXVsnUWsBG_KgA-18" value="&lt;font style=&quot;font-size: 9px;&quot; face=&quot;Times New Roman&quot;&gt;&amp;nbsp;P5&lt;/font&gt;" style="curved=1;endArrow=open;html=1;rounded=0;exitX=0;exitY=1;exitDx=0;exitDy=0;endFill=0;entryX=1;entryY=0;entryDx=0;entryDy=0;" edge="1" parent="1" source="YWkT2PEXVsnUWsBG_KgA-5" target="YWkT2PEXVsnUWsBG_KgA-8">
          <mxGeometry width="50" height="50" relative="1" as="geometry">
            <mxPoint x="266" y="110" as="sourcePoint" />
            <mxPoint x="240" y="137" as="targetPoint" />
            <Array as="points" />
          </mxGeometry>
        </mxCell>
        <mxCell id="YWkT2PEXVsnUWsBG_KgA-19" value="&lt;font style=&quot;font-size: 9px;&quot; face=&quot;Times New Roman&quot;&gt;&amp;nbsp;P5&lt;/font&gt;" style="curved=1;endArrow=open;html=1;rounded=0;endFill=0;entryX=1;entryY=0;entryDx=0;entryDy=0;exitX=0;exitY=1;exitDx=0;exitDy=0;" edge="1" parent="1" source="YWkT2PEXVsnUWsBG_KgA-8" target="YWkT2PEXVsnUWsBG_KgA-13">
          <mxGeometry width="50" height="50" relative="1" as="geometry">
            <mxPoint x="226" y="151" as="sourcePoint" />
            <mxPoint x="200" y="176" as="targetPoint" />
            <Array as="points" />
          </mxGeometry>
        </mxCell>
        <mxCell id="YWkT2PEXVsnUWsBG_KgA-20" value="&lt;font style=&quot;font-size: 9px;&quot; face=&quot;Times New Roman&quot;&gt;&amp;nbsp;P5&lt;/font&gt;" style="curved=1;endArrow=open;html=1;rounded=0;entryX=1;entryY=0;entryDx=0;entryDy=0;endFill=0;exitX=0;exitY=1;exitDx=0;exitDy=0;" edge="1" parent="1" source="YWkT2PEXVsnUWsBG_KgA-6" target="YWkT2PEXVsnUWsBG_KgA-9">
          <mxGeometry width="50" height="50" relative="1" as="geometry">
            <mxPoint x="356" y="114" as="sourcePoint" />
            <mxPoint x="330" y="140" as="targetPoint" />
            <Array as="points" />
          </mxGeometry>
        </mxCell>
        <mxCell id="YWkT2PEXVsnUWsBG_KgA-21" value="&lt;font style=&quot;font-size: 9px;&quot; face=&quot;Times New Roman&quot;&gt;&amp;nbsp;P5&lt;/font&gt;" style="curved=1;endArrow=open;html=1;rounded=0;exitX=0;exitY=1;exitDx=0;exitDy=0;endFill=0;entryX=1;entryY=0;entryDx=0;entryDy=0;" edge="1" parent="1" source="YWkT2PEXVsnUWsBG_KgA-9" target="YWkT2PEXVsnUWsBG_KgA-11">
          <mxGeometry width="50" height="50" relative="1" as="geometry">
            <mxPoint x="316" y="154" as="sourcePoint" />
            <mxPoint x="290" y="181" as="targetPoint" />
            <Array as="points" />
          </mxGeometry>
        </mxCell>
        <mxCell id="YWkT2PEXVsnUWsBG_KgA-22" value="&lt;font style=&quot;font-size: 9px;&quot; face=&quot;Times New Roman&quot;&gt;&amp;nbsp;P5&lt;/font&gt;" style="curved=1;endArrow=open;html=1;rounded=0;endFill=0;entryX=1;entryY=0;entryDx=0;entryDy=0;exitX=0;exitY=1;exitDx=0;exitDy=0;" edge="1" parent="1" source="YWkT2PEXVsnUWsBG_KgA-11" target="YWkT2PEXVsnUWsBG_KgA-12">
          <mxGeometry width="50" height="50" relative="1" as="geometry">
            <mxPoint x="276" y="195" as="sourcePoint" />
            <mxPoint x="250" y="220" as="targetPoint" />
            <Array as="points" />
          </mxGeometry>
        </mxCell>
        <mxCell id="YWkT2PEXVsnUWsBG_KgA-23" value="&lt;font style=&quot;font-size: 9px;&quot; face=&quot;Times New Roman&quot;&gt;M3&lt;/font&gt;" style="curved=1;endArrow=open;html=1;rounded=0;entryX=0;entryY=0;entryDx=0;entryDy=0;endFill=0;exitX=1;exitY=1;exitDx=0;exitDy=0;" edge="1" parent="1" source="YWkT2PEXVsnUWsBG_KgA-1" target="YWkT2PEXVsnUWsBG_KgA-3">
          <mxGeometry width="50" height="50" relative="1" as="geometry">
            <mxPoint x="293" y="47" as="sourcePoint" />
            <mxPoint x="267" y="73" as="targetPoint" />
            <Array as="points" />
          </mxGeometry>
        </mxCell>
        <mxCell id="YWkT2PEXVsnUWsBG_KgA-24" value="&lt;font style=&quot;font-size: 9px;&quot; face=&quot;Times New Roman&quot;&gt;M3&lt;/font&gt;" style="curved=1;endArrow=open;html=1;rounded=0;entryX=0;entryY=0;entryDx=0;entryDy=0;endFill=0;exitX=1;exitY=1;exitDx=0;exitDy=0;" edge="1" parent="1" source="YWkT2PEXVsnUWsBG_KgA-2" target="YWkT2PEXVsnUWsBG_KgA-5">
          <mxGeometry width="50" height="50" relative="1" as="geometry">
            <mxPoint x="307" y="47" as="sourcePoint" />
            <mxPoint x="333" y="73" as="targetPoint" />
            <Array as="points" />
          </mxGeometry>
        </mxCell>
        <mxCell id="YWkT2PEXVsnUWsBG_KgA-25" value="&lt;font style=&quot;font-size: 9px;&quot; face=&quot;Times New Roman&quot;&gt;M3&lt;/font&gt;" style="curved=1;endArrow=open;html=1;rounded=0;entryX=0;entryY=0;entryDx=0;entryDy=0;endFill=0;exitX=1;exitY=1;exitDx=0;exitDy=0;" edge="1" parent="1" source="YWkT2PEXVsnUWsBG_KgA-4" target="YWkT2PEXVsnUWsBG_KgA-8">
          <mxGeometry width="50" height="50" relative="1" as="geometry">
            <mxPoint x="267" y="87" as="sourcePoint" />
            <mxPoint x="293" y="114" as="targetPoint" />
            <Array as="points" />
          </mxGeometry>
        </mxCell>
        <mxCell id="YWkT2PEXVsnUWsBG_KgA-26" value="&lt;font style=&quot;font-size: 9px;&quot; face=&quot;Times New Roman&quot;&gt;M3&lt;/font&gt;" style="curved=1;endArrow=open;html=1;rounded=0;entryX=0;entryY=0;entryDx=0;entryDy=0;endFill=0;exitX=1;exitY=1;exitDx=0;exitDy=0;" edge="1" parent="1" source="YWkT2PEXVsnUWsBG_KgA-7" target="YWkT2PEXVsnUWsBG_KgA-13">
          <mxGeometry width="50" height="50" relative="1" as="geometry">
            <mxPoint x="227" y="128" as="sourcePoint" />
            <mxPoint x="253" y="153" as="targetPoint" />
            <Array as="points" />
          </mxGeometry>
        </mxCell>
        <mxCell id="YWkT2PEXVsnUWsBG_KgA-27" value="&lt;font style=&quot;font-size: 9px;&quot; face=&quot;Times New Roman&quot;&gt;M3&lt;/font&gt;" style="curved=1;endArrow=open;html=1;rounded=0;entryX=0;entryY=0;entryDx=0;entryDy=0;endFill=0;exitX=1;exitY=1;exitDx=0;exitDy=0;" edge="1" parent="1" source="YWkT2PEXVsnUWsBG_KgA-3" target="YWkT2PEXVsnUWsBG_KgA-6">
          <mxGeometry width="50" height="50" relative="1" as="geometry">
            <mxPoint x="350" y="70" as="sourcePoint" />
            <mxPoint x="376" y="96" as="targetPoint" />
            <Array as="points" />
          </mxGeometry>
        </mxCell>
        <mxCell id="YWkT2PEXVsnUWsBG_KgA-28" value="&lt;font style=&quot;font-size: 9px;&quot; face=&quot;Times New Roman&quot;&gt;M3&lt;/font&gt;" style="curved=1;endArrow=open;html=1;rounded=0;entryX=0;entryY=0;entryDx=0;entryDy=0;endFill=0;exitX=1;exitY=1;exitDx=0;exitDy=0;" edge="1" parent="1" source="YWkT2PEXVsnUWsBG_KgA-5" target="YWkT2PEXVsnUWsBG_KgA-9">
          <mxGeometry width="50" height="50" relative="1" as="geometry">
            <mxPoint x="197" y="177" as="sourcePoint" />
            <mxPoint x="223" y="203" as="targetPoint" />
            <Array as="points" />
          </mxGeometry>
        </mxCell>
        <mxCell id="YWkT2PEXVsnUWsBG_KgA-29" value="&lt;font style=&quot;font-size: 9px;&quot; face=&quot;Times New Roman&quot;&gt;M3&lt;/font&gt;" style="curved=1;endArrow=open;html=1;rounded=0;endFill=0;exitX=1;exitY=1;exitDx=0;exitDy=0;" edge="1" parent="1" source="YWkT2PEXVsnUWsBG_KgA-8" target="YWkT2PEXVsnUWsBG_KgA-11">
          <mxGeometry width="50" height="50" relative="1" as="geometry">
            <mxPoint x="207" y="187" as="sourcePoint" />
            <mxPoint x="233" y="213" as="targetPoint" />
            <Array as="points" />
          </mxGeometry>
        </mxCell>
        <mxCell id="YWkT2PEXVsnUWsBG_KgA-30" value="&lt;font style=&quot;font-size: 9px;&quot; face=&quot;Times New Roman&quot;&gt;M3&lt;/font&gt;" style="curved=1;endArrow=open;html=1;rounded=0;entryX=0;entryY=0;entryDx=0;entryDy=0;endFill=0;exitX=1;exitY=1;exitDx=0;exitDy=0;" edge="1" parent="1" source="YWkT2PEXVsnUWsBG_KgA-13" target="YWkT2PEXVsnUWsBG_KgA-12">
          <mxGeometry width="50" height="50" relative="1" as="geometry">
            <mxPoint x="180" y="214" as="sourcePoint" />
            <mxPoint x="206" y="239.99999999999997" as="targetPoint" />
            <Array as="points" />
          </mxGeometry>
        </mxCell>
        <mxCell id="YWkT2PEXVsnUWsBG_KgA-32" value="&lt;font color=&quot;#999999&quot; face=&quot;Times New Roman&quot;&gt;&lt;b&gt;A&lt;/b&gt;&lt;/font&gt;" style="ellipse;whiteSpace=wrap;html=1;aspect=fixed;strokeWidth=0.75;fillColor=#E6E6E6;opacity=25;" vertex="1" parent="1">
          <mxGeometry x="40" y="259.99999999999994" width="20" height="20" as="geometry" />
        </mxCell>
        <mxCell id="YWkT2PEXVsnUWsBG_KgA-33" value="&lt;font color=&quot;#999999&quot; face=&quot;Times New Roman&quot;&gt;&lt;b&gt;C&lt;/b&gt;&lt;/font&gt;&lt;b style=&quot;border-color: var(--border-color); font-family: &amp;quot;Times New Roman&amp;quot;;&quot;&gt;&lt;sup style=&quot;border-color: var(--border-color);&quot;&gt;&lt;font color=&quot;#999999&quot;&gt;♯&lt;/font&gt;&lt;/sup&gt;&lt;/b&gt;" style="ellipse;whiteSpace=wrap;html=1;aspect=fixed;strokeWidth=0.75;fillColor=#E6E6E6;opacity=25;" vertex="1" parent="1">
          <mxGeometry x="100" y="319.99999999999994" width="20" height="20" as="geometry" />
        </mxCell>
        <mxCell id="YWkT2PEXVsnUWsBG_KgA-35" value="&lt;font color=&quot;#999999&quot; face=&quot;Times New Roman&quot;&gt;&lt;b&gt;F&lt;/b&gt;&lt;/font&gt;" style="ellipse;whiteSpace=wrap;html=1;aspect=fixed;strokeWidth=0.75;fillColor=#E6E6E6;opacity=25;" vertex="1" parent="1">
          <mxGeometry x="463" y="201.09000000000003" width="20" height="20" as="geometry" />
        </mxCell>
        <mxCell id="YWkT2PEXVsnUWsBG_KgA-36" value="&lt;font color=&quot;#999999&quot; face=&quot;Times New Roman&quot;&gt;&lt;b&gt;C&lt;/b&gt;&lt;/font&gt;" style="ellipse;whiteSpace=wrap;html=1;aspect=fixed;strokeWidth=0.75;fillColor=#E6E6E6;opacity=25;" vertex="1" parent="1">
          <mxGeometry x="402" y="259.99999999999994" width="20" height="20" as="geometry" />
        </mxCell>
        <mxCell id="YWkT2PEXVsnUWsBG_KgA-37" value="&lt;font color=&quot;#999999&quot; face=&quot;Times New Roman&quot;&gt;&lt;b&gt;G&lt;/b&gt;&lt;/font&gt;" style="ellipse;whiteSpace=wrap;html=1;aspect=fixed;strokeWidth=0.75;fillColor=#E6E6E6;opacity=25;" vertex="1" parent="1">
          <mxGeometry x="340" y="319.99999999999994" width="20" height="20" as="geometry" />
        </mxCell>
        <mxCell id="YWkT2PEXVsnUWsBG_KgA-38" value="&lt;font color=&quot;#999999&quot; face=&quot;Times New Roman&quot;&gt;&lt;b&gt;D&lt;/b&gt;&lt;/font&gt;" style="ellipse;whiteSpace=wrap;html=1;aspect=fixed;strokeWidth=0.75;fillColor=#E6E6E6;opacity=25;" vertex="1" parent="1">
          <mxGeometry x="280" y="379.99999999999994" width="20" height="20" as="geometry" />
        </mxCell>
        <mxCell id="YWkT2PEXVsnUWsBG_KgA-39" value="&lt;font color=&quot;#999999&quot; face=&quot;Times New Roman&quot;&gt;&lt;b&gt;F&lt;/b&gt;&lt;/font&gt;" style="ellipse;whiteSpace=wrap;html=1;aspect=fixed;strokeWidth=0.75;fillColor=#E6E6E6;opacity=25;" vertex="1" parent="1">
          <mxGeometry x="160" y="379.99999999999994" width="20" height="20" as="geometry" />
        </mxCell>
        <mxCell id="YWkT2PEXVsnUWsBG_KgA-40" value="&lt;font color=&quot;#999999&quot; style=&quot;font-size: 9px;&quot; face=&quot;Times New Roman&quot;&gt;&amp;nbsp;P5&lt;/font&gt;" style="curved=1;endArrow=open;html=1;rounded=0;endFill=0;entryX=1;entryY=0;entryDx=0;entryDy=0;exitX=0;exitY=1;exitDx=0;exitDy=0;opacity=25;dashed=1;" edge="1" parent="1" source="YWkT2PEXVsnUWsBG_KgA-7" target="YWkT2PEXVsnUWsBG_KgA-32">
          <mxGeometry width="50" height="50" relative="1" as="geometry">
            <mxPoint x="100" y="214" as="sourcePoint" />
            <mxPoint x="54" y="259.99999999999994" as="targetPoint" />
            <Array as="points" />
          </mxGeometry>
        </mxCell>
        <mxCell id="YWkT2PEXVsnUWsBG_KgA-41" value="&lt;font color=&quot;#999999&quot; style=&quot;font-size: 9px;&quot; face=&quot;Times New Roman&quot;&gt;&amp;nbsp;P5&lt;/font&gt;" style="curved=1;endArrow=open;html=1;rounded=0;endFill=0;entryX=1;entryY=0;entryDx=0;entryDy=0;exitX=0;exitY=1;exitDx=0;exitDy=0;opacity=25;dashed=1;" edge="1" parent="1" source="YWkT2PEXVsnUWsBG_KgA-13" target="YWkT2PEXVsnUWsBG_KgA-33">
          <mxGeometry width="50" height="50" relative="1" as="geometry">
            <mxPoint x="113" y="226.99999999999997" as="sourcePoint" />
            <mxPoint x="67" y="272.99999999999994" as="targetPoint" />
            <Array as="points" />
          </mxGeometry>
        </mxCell>
        <mxCell id="YWkT2PEXVsnUWsBG_KgA-42" value="&lt;font color=&quot;#999999&quot; style=&quot;font-size: 9px;&quot; face=&quot;Times New Roman&quot;&gt;&amp;nbsp;P5&lt;/font&gt;" style="curved=1;endArrow=open;html=1;rounded=0;endFill=0;entryX=1;entryY=0;entryDx=0;entryDy=0;exitX=0;exitY=1;exitDx=0;exitDy=0;opacity=25;dashed=1;" edge="1" parent="1" source="YWkT2PEXVsnUWsBG_KgA-12" target="YWkT2PEXVsnUWsBG_KgA-39">
          <mxGeometry width="50" height="50" relative="1" as="geometry">
            <mxPoint x="123" y="236.99999999999997" as="sourcePoint" />
            <mxPoint x="77" y="282.99999999999994" as="targetPoint" />
            <Array as="points" />
          </mxGeometry>
        </mxCell>
        <mxCell id="YWkT2PEXVsnUWsBG_KgA-43" value="&lt;font color=&quot;#999999&quot; style=&quot;font-size: 9px;&quot; face=&quot;Times New Roman&quot;&gt;&amp;nbsp;M3&lt;/font&gt;" style="curved=1;endArrow=open;html=1;rounded=0;endFill=0;entryX=0;entryY=0;entryDx=0;entryDy=0;exitX=1;exitY=1;exitDx=0;exitDy=0;opacity=25;dashed=1;" edge="1" parent="1" source="YWkT2PEXVsnUWsBG_KgA-12" target="YWkT2PEXVsnUWsBG_KgA-38">
          <mxGeometry width="50" height="50" relative="1" as="geometry">
            <mxPoint x="173" y="286.99999999999994" as="sourcePoint" />
            <mxPoint x="127" y="332.99999999999994" as="targetPoint" />
            <Array as="points" />
          </mxGeometry>
        </mxCell>
        <mxCell id="YWkT2PEXVsnUWsBG_KgA-44" value="&lt;font color=&quot;#999999&quot; style=&quot;font-size: 9px;&quot; face=&quot;Times New Roman&quot;&gt;&amp;nbsp;M3&lt;/font&gt;" style="curved=1;endArrow=open;html=1;rounded=0;endFill=0;entryX=0;entryY=0;entryDx=0;entryDy=0;exitX=1;exitY=1;exitDx=0;exitDy=0;opacity=25;dashed=1;" edge="1" parent="1" source="YWkT2PEXVsnUWsBG_KgA-11" target="YWkT2PEXVsnUWsBG_KgA-37">
          <mxGeometry width="50" height="50" relative="1" as="geometry">
            <mxPoint x="247" y="346.99999999999994" as="sourcePoint" />
            <mxPoint x="293" y="392.99999999999994" as="targetPoint" />
            <Array as="points" />
          </mxGeometry>
        </mxCell>
        <mxCell id="YWkT2PEXVsnUWsBG_KgA-45" value="&lt;font color=&quot;#999999&quot; style=&quot;font-size: 9px;&quot; face=&quot;Times New Roman&quot;&gt;&amp;nbsp;M3&lt;/font&gt;" style="curved=1;endArrow=open;html=1;rounded=0;endFill=0;entryX=0;entryY=0;entryDx=0;entryDy=0;exitX=1;exitY=1;exitDx=0;exitDy=0;opacity=25;dashed=1;" edge="1" parent="1" source="YWkT2PEXVsnUWsBG_KgA-9" target="YWkT2PEXVsnUWsBG_KgA-36">
          <mxGeometry width="50" height="50" relative="1" as="geometry">
            <mxPoint x="257" y="356.99999999999994" as="sourcePoint" />
            <mxPoint x="303" y="402.99999999999994" as="targetPoint" />
            <Array as="points" />
          </mxGeometry>
        </mxCell>
        <mxCell id="YWkT2PEXVsnUWsBG_KgA-46" value="&lt;font color=&quot;#999999&quot; style=&quot;font-size: 9px;&quot; face=&quot;Times New Roman&quot;&gt;&amp;nbsp;M3&lt;/font&gt;" style="curved=1;endArrow=open;html=1;rounded=0;endFill=0;entryX=0;entryY=0;entryDx=0;entryDy=0;exitX=1;exitY=1;exitDx=0;exitDy=0;opacity=25;dashed=1;" edge="1" parent="1" source="YWkT2PEXVsnUWsBG_KgA-6" target="YWkT2PEXVsnUWsBG_KgA-35">
          <mxGeometry width="50" height="50" relative="1" as="geometry">
            <mxPoint x="267" y="366.99999999999994" as="sourcePoint" />
            <mxPoint x="313" y="412.99999999999994" as="targetPoint" />
            <Array as="points" />
          </mxGeometry>
        </mxCell>
        <mxCell id="YWkT2PEXVsnUWsBG_KgA-82" value="&lt;font face=&quot;Times New Roman&quot;&gt;&lt;b&gt;F&lt;/b&gt;&lt;/font&gt;" style="ellipse;whiteSpace=wrap;html=1;aspect=fixed;strokeWidth=0.75;fillColor=#E6E6E6;" vertex="1" parent="1">
          <mxGeometry x="260" y="460" width="20" height="20" as="geometry" />
        </mxCell>
        <mxCell id="YWkT2PEXVsnUWsBG_KgA-83" value="&lt;font face=&quot;Times New Roman&quot;&gt;&lt;b&gt;C&lt;/b&gt;&lt;/font&gt;" style="ellipse;whiteSpace=wrap;html=1;aspect=fixed;strokeWidth=0.75;fillColor=#E6E6E6;" vertex="1" parent="1">
          <mxGeometry x="200" y="520" width="20" height="20" as="geometry" />
        </mxCell>
        <mxCell id="YWkT2PEXVsnUWsBG_KgA-84" value="&lt;font face=&quot;Times New Roman&quot;&gt;&lt;b&gt;A&lt;/b&gt;&lt;/font&gt;" style="ellipse;whiteSpace=wrap;html=1;aspect=fixed;strokeWidth=0.75;fillColor=#E6E6E6;" vertex="1" parent="1">
          <mxGeometry x="320" y="520" width="20" height="20" as="geometry" />
        </mxCell>
        <mxCell id="YWkT2PEXVsnUWsBG_KgA-85" value="&lt;font face=&quot;Times New Roman&quot;&gt;&lt;b&gt;G&lt;/b&gt;&lt;/font&gt;" style="ellipse;whiteSpace=wrap;html=1;aspect=fixed;strokeWidth=0.75;fillColor=#E6E6E6;" vertex="1" parent="1">
          <mxGeometry x="140" y="580" width="20" height="20" as="geometry" />
        </mxCell>
        <mxCell id="YWkT2PEXVsnUWsBG_KgA-86" value="&lt;font face=&quot;Times New Roman&quot;&gt;&lt;b&gt;E&lt;/b&gt;&lt;/font&gt;" style="ellipse;whiteSpace=wrap;html=1;aspect=fixed;strokeWidth=0.75;fillColor=#E6E6E6;" vertex="1" parent="1">
          <mxGeometry x="260" y="580" width="20" height="20" as="geometry" />
        </mxCell>
        <mxCell id="YWkT2PEXVsnUWsBG_KgA-87" value="&lt;font face=&quot;Times New Roman&quot;&gt;&lt;b&gt;C&lt;sup&gt;♯&lt;/sup&gt;&lt;/b&gt;&lt;/font&gt;" style="ellipse;whiteSpace=wrap;html=1;aspect=fixed;strokeWidth=0.75;fillColor=#E6E6E6;" vertex="1" parent="1">
          <mxGeometry x="380" y="580" width="20" height="20" as="geometry" />
        </mxCell>
        <mxCell id="YWkT2PEXVsnUWsBG_KgA-88" value="&lt;font face=&quot;Times New Roman&quot;&gt;&lt;b&gt;D&lt;/b&gt;&lt;/font&gt;" style="ellipse;whiteSpace=wrap;html=1;aspect=fixed;strokeWidth=0.75;fillColor=#E6E6E6;" vertex="1" parent="1">
          <mxGeometry x="80" y="640" width="20" height="20" as="geometry" />
        </mxCell>
        <mxCell id="YWkT2PEXVsnUWsBG_KgA-89" value="&lt;font face=&quot;Times New Roman&quot;&gt;&lt;b&gt;B&lt;/b&gt;&lt;/font&gt;" style="ellipse;whiteSpace=wrap;html=1;aspect=fixed;strokeWidth=0.75;fillColor=#E6E6E6;" vertex="1" parent="1">
          <mxGeometry x="200" y="640" width="20" height="20" as="geometry" />
        </mxCell>
        <mxCell id="YWkT2PEXVsnUWsBG_KgA-90" value="&lt;font face=&quot;Times New Roman&quot;&gt;&lt;b&gt;G&lt;sup&gt;♯&lt;/sup&gt;&lt;/b&gt;&lt;/font&gt;" style="ellipse;whiteSpace=wrap;html=1;aspect=fixed;strokeWidth=0.75;fillColor=#E6E6E6;" vertex="1" parent="1">
          <mxGeometry x="320" y="640" width="20" height="20" as="geometry" />
        </mxCell>
        <mxCell id="YWkT2PEXVsnUWsBG_KgA-91" value="&lt;font face=&quot;Times New Roman&quot;&gt;&lt;b&gt;D&lt;sup&gt;♯&lt;/sup&gt;&lt;/b&gt;&lt;/font&gt;" style="ellipse;whiteSpace=wrap;html=1;aspect=fixed;strokeWidth=0.75;fillColor=#E6E6E6;" vertex="1" parent="1">
          <mxGeometry x="260" y="700" width="20" height="20" as="geometry" />
        </mxCell>
        <mxCell id="YWkT2PEXVsnUWsBG_KgA-92" value="&lt;font face=&quot;Times New Roman&quot;&gt;&lt;b&gt;A&lt;sup&gt;♯&lt;/sup&gt;&lt;/b&gt;&lt;/font&gt;" style="ellipse;whiteSpace=wrap;html=1;aspect=fixed;strokeWidth=0.75;fillColor=#E6E6E6;" vertex="1" parent="1">
          <mxGeometry x="200" y="760" width="20" height="20" as="geometry" />
        </mxCell>
        <mxCell id="YWkT2PEXVsnUWsBG_KgA-93" value="&lt;font face=&quot;Times New Roman&quot;&gt;&lt;b&gt;F&lt;sup&gt;♯&lt;/sup&gt;&lt;/b&gt;&lt;/font&gt;" style="ellipse;whiteSpace=wrap;html=1;aspect=fixed;strokeWidth=0.75;fillColor=#E6E6E6;" vertex="1" parent="1">
          <mxGeometry x="140" y="700" width="20" height="20" as="geometry" />
        </mxCell>
        <mxCell id="YWkT2PEXVsnUWsBG_KgA-94" value="&lt;font style=&quot;font-size: 9px;&quot; face=&quot;Times New Roman&quot;&gt;&amp;nbsp;P5&lt;/font&gt;" style="curved=1;endArrow=open;html=1;rounded=0;entryX=1;entryY=0;entryDx=0;entryDy=0;endFill=0;" edge="1" parent="1" target="YWkT2PEXVsnUWsBG_KgA-83">
          <mxGeometry width="50" height="50" relative="1" as="geometry">
            <mxPoint x="263" y="477" as="sourcePoint" />
            <mxPoint x="160" y="810" as="targetPoint" />
            <Array as="points" />
          </mxGeometry>
        </mxCell>
        <mxCell id="YWkT2PEXVsnUWsBG_KgA-95" value="&lt;font style=&quot;font-size: 9px;&quot; face=&quot;Times New Roman&quot;&gt;&amp;nbsp;P5&lt;/font&gt;" style="curved=1;endArrow=open;html=1;rounded=0;exitX=0;exitY=1;exitDx=0;exitDy=0;endFill=0;entryX=1;entryY=0;entryDx=0;entryDy=0;" edge="1" parent="1" source="YWkT2PEXVsnUWsBG_KgA-83" target="YWkT2PEXVsnUWsBG_KgA-85">
          <mxGeometry width="50" height="50" relative="1" as="geometry">
            <mxPoint x="220" y="520" as="sourcePoint" />
            <mxPoint x="210" y="551" as="targetPoint" />
            <Array as="points" />
          </mxGeometry>
        </mxCell>
        <mxCell id="YWkT2PEXVsnUWsBG_KgA-96" value="&lt;font style=&quot;font-size: 9px;&quot; face=&quot;Times New Roman&quot;&gt;&amp;nbsp;P5&lt;/font&gt;" style="curved=1;endArrow=open;html=1;rounded=0;endFill=0;entryX=1;entryY=0;entryDx=0;entryDy=0;exitX=0;exitY=1;exitDx=0;exitDy=0;" edge="1" parent="1" source="YWkT2PEXVsnUWsBG_KgA-85" target="YWkT2PEXVsnUWsBG_KgA-88">
          <mxGeometry width="50" height="50" relative="1" as="geometry">
            <mxPoint x="170" y="560" as="sourcePoint" />
            <mxPoint x="170" y="600" as="targetPoint" />
            <Array as="points" />
          </mxGeometry>
        </mxCell>
        <mxCell id="YWkT2PEXVsnUWsBG_KgA-97" value="&lt;font style=&quot;font-size: 9px;&quot; face=&quot;Times New Roman&quot;&gt;&amp;nbsp;P5&lt;/font&gt;" style="curved=1;endArrow=open;html=1;rounded=0;entryX=1;entryY=0;entryDx=0;entryDy=0;endFill=0;exitX=0;exitY=1;exitDx=0;exitDy=0;" edge="1" parent="1" source="YWkT2PEXVsnUWsBG_KgA-84" target="YWkT2PEXVsnUWsBG_KgA-86">
          <mxGeometry width="50" height="50" relative="1" as="geometry">
            <mxPoint x="286" y="510" as="sourcePoint" />
            <mxPoint x="260" y="536" as="targetPoint" />
            <Array as="points" />
          </mxGeometry>
        </mxCell>
        <mxCell id="YWkT2PEXVsnUWsBG_KgA-99" value="&lt;font style=&quot;font-size: 9px;&quot; face=&quot;Times New Roman&quot;&gt;&amp;nbsp;P5&lt;/font&gt;" style="curved=1;endArrow=open;html=1;rounded=0;endFill=0;entryX=1;entryY=0;entryDx=0;entryDy=0;exitX=0;exitY=1;exitDx=0;exitDy=0;labelBackgroundColor=#FFE3E3;" edge="1" parent="1" source="YWkT2PEXVsnUWsBG_KgA-89" target="YWkT2PEXVsnUWsBG_KgA-93">
          <mxGeometry width="50" height="50" relative="1" as="geometry">
            <mxPoint x="206" y="591" as="sourcePoint" />
            <mxPoint x="180" y="616" as="targetPoint" />
            <Array as="points" />
          </mxGeometry>
        </mxCell>
        <mxCell id="YWkT2PEXVsnUWsBG_KgA-100" value="&lt;font style=&quot;font-size: 9px;&quot; face=&quot;Times New Roman&quot;&gt;&amp;nbsp;P5&lt;/font&gt;" style="curved=1;endArrow=open;html=1;rounded=0;entryX=1;entryY=0;entryDx=0;entryDy=0;endFill=0;exitX=0;exitY=1;exitDx=0;exitDy=0;labelBackgroundColor=#FFE8E8;" edge="1" parent="1" source="YWkT2PEXVsnUWsBG_KgA-87" target="YWkT2PEXVsnUWsBG_KgA-90">
          <mxGeometry width="50" height="50" relative="1" as="geometry">
            <mxPoint x="336" y="554" as="sourcePoint" />
            <mxPoint x="310" y="580" as="targetPoint" />
            <Array as="points" />
          </mxGeometry>
        </mxCell>
        <mxCell id="YWkT2PEXVsnUWsBG_KgA-101" value="&lt;font style=&quot;font-size: 9px;&quot; face=&quot;Times New Roman&quot;&gt;&amp;nbsp;P5&lt;/font&gt;" style="curved=1;endArrow=open;html=1;rounded=0;exitX=0;exitY=1;exitDx=0;exitDy=0;endFill=0;entryX=1;entryY=0;entryDx=0;entryDy=0;labelBackgroundColor=#FFDBD9;" edge="1" parent="1" source="YWkT2PEXVsnUWsBG_KgA-90" target="YWkT2PEXVsnUWsBG_KgA-91">
          <mxGeometry width="50" height="50" relative="1" as="geometry">
            <mxPoint x="296" y="594" as="sourcePoint" />
            <mxPoint x="270" y="621" as="targetPoint" />
            <Array as="points" />
          </mxGeometry>
        </mxCell>
        <mxCell id="YWkT2PEXVsnUWsBG_KgA-102" value="&lt;font style=&quot;font-size: 9px;&quot; face=&quot;Times New Roman&quot;&gt;&amp;nbsp;P5&lt;/font&gt;" style="curved=1;endArrow=open;html=1;rounded=0;endFill=0;entryX=1;entryY=0;entryDx=0;entryDy=0;exitX=0;exitY=1;exitDx=0;exitDy=0;labelBackgroundColor=#FFD6D1;" edge="1" parent="1" source="YWkT2PEXVsnUWsBG_KgA-91" target="YWkT2PEXVsnUWsBG_KgA-92">
          <mxGeometry width="50" height="50" relative="1" as="geometry">
            <mxPoint x="256" y="635" as="sourcePoint" />
            <mxPoint x="230" y="660" as="targetPoint" />
            <Array as="points" />
          </mxGeometry>
        </mxCell>
        <mxCell id="YWkT2PEXVsnUWsBG_KgA-103" value="&lt;font style=&quot;font-size: 9px;&quot; face=&quot;Times New Roman&quot;&gt;M3&lt;/font&gt;" style="curved=1;endArrow=open;html=1;rounded=0;entryX=0;entryY=0;entryDx=0;entryDy=0;endFill=0;exitX=1;exitY=1;exitDx=0;exitDy=0;" edge="1" parent="1" source="YWkT2PEXVsnUWsBG_KgA-82" target="YWkT2PEXVsnUWsBG_KgA-84">
          <mxGeometry width="50" height="50" relative="1" as="geometry">
            <mxPoint x="273" y="487" as="sourcePoint" />
            <mxPoint x="247" y="513" as="targetPoint" />
            <Array as="points" />
          </mxGeometry>
        </mxCell>
        <mxCell id="YWkT2PEXVsnUWsBG_KgA-104" value="&lt;font style=&quot;font-size: 9px;&quot; face=&quot;Times New Roman&quot;&gt;M3&lt;/font&gt;" style="curved=1;endArrow=open;html=1;rounded=0;entryX=0;entryY=0;entryDx=0;entryDy=0;endFill=0;exitX=1;exitY=1;exitDx=0;exitDy=0;" edge="1" parent="1" source="YWkT2PEXVsnUWsBG_KgA-83" target="YWkT2PEXVsnUWsBG_KgA-86">
          <mxGeometry width="50" height="50" relative="1" as="geometry">
            <mxPoint x="287" y="487" as="sourcePoint" />
            <mxPoint x="313" y="513" as="targetPoint" />
            <Array as="points" />
          </mxGeometry>
        </mxCell>
        <mxCell id="YWkT2PEXVsnUWsBG_KgA-105" value="&lt;font style=&quot;font-size: 9px;&quot; face=&quot;Times New Roman&quot;&gt;M3&lt;/font&gt;" style="curved=1;endArrow=open;html=1;rounded=0;entryX=0;entryY=0;entryDx=0;entryDy=0;endFill=0;exitX=1;exitY=1;exitDx=0;exitDy=0;" edge="1" parent="1" source="YWkT2PEXVsnUWsBG_KgA-85" target="YWkT2PEXVsnUWsBG_KgA-89">
          <mxGeometry width="50" height="50" relative="1" as="geometry">
            <mxPoint x="247" y="527" as="sourcePoint" />
            <mxPoint x="273" y="554" as="targetPoint" />
            <Array as="points" />
          </mxGeometry>
        </mxCell>
        <mxCell id="YWkT2PEXVsnUWsBG_KgA-106" value="&lt;font style=&quot;font-size: 9px;&quot; face=&quot;Times New Roman&quot;&gt;M3&lt;/font&gt;" style="curved=1;endArrow=open;html=1;rounded=0;entryX=0;entryY=0;entryDx=0;entryDy=0;endFill=0;exitX=1;exitY=1;exitDx=0;exitDy=0;" edge="1" parent="1" source="YWkT2PEXVsnUWsBG_KgA-88" target="YWkT2PEXVsnUWsBG_KgA-93">
          <mxGeometry width="50" height="50" relative="1" as="geometry">
            <mxPoint x="207" y="568" as="sourcePoint" />
            <mxPoint x="233" y="593" as="targetPoint" />
            <Array as="points" />
          </mxGeometry>
        </mxCell>
        <mxCell id="YWkT2PEXVsnUWsBG_KgA-107" value="&lt;font style=&quot;font-size: 9px;&quot; face=&quot;Times New Roman&quot;&gt;M3&lt;/font&gt;" style="curved=1;endArrow=open;html=1;rounded=0;entryX=0;entryY=0;entryDx=0;entryDy=0;endFill=0;exitX=1;exitY=1;exitDx=0;exitDy=0;" edge="1" parent="1" source="YWkT2PEXVsnUWsBG_KgA-84" target="YWkT2PEXVsnUWsBG_KgA-87">
          <mxGeometry width="50" height="50" relative="1" as="geometry">
            <mxPoint x="330" y="510" as="sourcePoint" />
            <mxPoint x="356" y="536" as="targetPoint" />
            <Array as="points" />
          </mxGeometry>
        </mxCell>
        <mxCell id="YWkT2PEXVsnUWsBG_KgA-108" value="&lt;font style=&quot;font-size: 9px;&quot; face=&quot;Times New Roman&quot;&gt;M3&lt;/font&gt;" style="curved=1;endArrow=open;html=1;rounded=0;entryX=0;entryY=0;entryDx=0;entryDy=0;endFill=0;exitX=1;exitY=1;exitDx=0;exitDy=0;" edge="1" parent="1" source="YWkT2PEXVsnUWsBG_KgA-86" target="YWkT2PEXVsnUWsBG_KgA-90">
          <mxGeometry width="50" height="50" relative="1" as="geometry">
            <mxPoint x="177" y="617" as="sourcePoint" />
            <mxPoint x="203" y="643" as="targetPoint" />
            <Array as="points" />
          </mxGeometry>
        </mxCell>
        <mxCell id="YWkT2PEXVsnUWsBG_KgA-109" value="&lt;font style=&quot;font-size: 9px;&quot; face=&quot;Times New Roman&quot;&gt;M3&lt;/font&gt;" style="curved=1;endArrow=open;html=1;rounded=0;endFill=0;exitX=1;exitY=1;exitDx=0;exitDy=0;" edge="1" parent="1" source="YWkT2PEXVsnUWsBG_KgA-89" target="YWkT2PEXVsnUWsBG_KgA-91">
          <mxGeometry width="50" height="50" relative="1" as="geometry">
            <mxPoint x="187" y="627" as="sourcePoint" />
            <mxPoint x="213" y="653" as="targetPoint" />
            <Array as="points" />
          </mxGeometry>
        </mxCell>
        <mxCell id="YWkT2PEXVsnUWsBG_KgA-110" value="&lt;font style=&quot;font-size: 9px;&quot; face=&quot;Times New Roman&quot;&gt;M3&lt;/font&gt;" style="curved=1;endArrow=open;html=1;rounded=0;entryX=0;entryY=0;entryDx=0;entryDy=0;endFill=0;exitX=1;exitY=1;exitDx=0;exitDy=0;" edge="1" parent="1" source="YWkT2PEXVsnUWsBG_KgA-93" target="YWkT2PEXVsnUWsBG_KgA-92">
          <mxGeometry width="50" height="50" relative="1" as="geometry">
            <mxPoint x="160" y="654" as="sourcePoint" />
            <mxPoint x="186" y="680" as="targetPoint" />
            <Array as="points" />
          </mxGeometry>
        </mxCell>
        <mxCell id="YWkT2PEXVsnUWsBG_KgA-111" value="&lt;font color=&quot;#999999&quot; face=&quot;Times New Roman&quot;&gt;&lt;b&gt;A&lt;/b&gt;&lt;/font&gt;" style="ellipse;whiteSpace=wrap;html=1;aspect=fixed;strokeWidth=0.75;fillColor=#E6E6E6;opacity=25;" vertex="1" parent="1">
          <mxGeometry x="20" y="700" width="20" height="20" as="geometry" />
        </mxCell>
        <mxCell id="YWkT2PEXVsnUWsBG_KgA-112" value="&lt;font color=&quot;#999999&quot; face=&quot;Times New Roman&quot;&gt;&lt;b&gt;C&lt;/b&gt;&lt;/font&gt;&lt;b style=&quot;border-color: var(--border-color); font-family: &amp;quot;Times New Roman&amp;quot;;&quot;&gt;&lt;sup style=&quot;border-color: var(--border-color);&quot;&gt;&lt;font color=&quot;#999999&quot;&gt;♯&lt;/font&gt;&lt;/sup&gt;&lt;/b&gt;" style="ellipse;whiteSpace=wrap;html=1;aspect=fixed;strokeWidth=0.75;fillColor=#E6E6E6;opacity=25;" vertex="1" parent="1">
          <mxGeometry x="80" y="760" width="20" height="20" as="geometry" />
        </mxCell>
        <mxCell id="YWkT2PEXVsnUWsBG_KgA-113" value="&lt;font color=&quot;#999999&quot; face=&quot;Times New Roman&quot;&gt;&lt;b&gt;F&lt;/b&gt;&lt;/font&gt;" style="ellipse;whiteSpace=wrap;html=1;aspect=fixed;strokeWidth=0.75;fillColor=#E6E6E6;opacity=25;" vertex="1" parent="1">
          <mxGeometry x="443" y="641.09" width="20" height="20" as="geometry" />
        </mxCell>
        <mxCell id="YWkT2PEXVsnUWsBG_KgA-114" value="&lt;font color=&quot;#999999&quot; face=&quot;Times New Roman&quot;&gt;&lt;b&gt;C&lt;/b&gt;&lt;/font&gt;" style="ellipse;whiteSpace=wrap;html=1;aspect=fixed;strokeWidth=0.75;fillColor=#E6E6E6;opacity=25;" vertex="1" parent="1">
          <mxGeometry x="382" y="700" width="20" height="20" as="geometry" />
        </mxCell>
        <mxCell id="YWkT2PEXVsnUWsBG_KgA-115" value="&lt;font color=&quot;#999999&quot; face=&quot;Times New Roman&quot;&gt;&lt;b&gt;G&lt;/b&gt;&lt;/font&gt;" style="ellipse;whiteSpace=wrap;html=1;aspect=fixed;strokeWidth=0.75;fillColor=#E6E6E6;opacity=25;" vertex="1" parent="1">
          <mxGeometry x="320" y="760" width="20" height="20" as="geometry" />
        </mxCell>
        <mxCell id="YWkT2PEXVsnUWsBG_KgA-116" value="&lt;font color=&quot;#999999&quot; face=&quot;Times New Roman&quot;&gt;&lt;b&gt;D&lt;/b&gt;&lt;/font&gt;" style="ellipse;whiteSpace=wrap;html=1;aspect=fixed;strokeWidth=0.75;fillColor=#E6E6E6;opacity=25;" vertex="1" parent="1">
          <mxGeometry x="260" y="820" width="20" height="20" as="geometry" />
        </mxCell>
        <mxCell id="YWkT2PEXVsnUWsBG_KgA-117" value="&lt;font color=&quot;#999999&quot; face=&quot;Times New Roman&quot;&gt;&lt;b&gt;F&lt;/b&gt;&lt;/font&gt;" style="ellipse;whiteSpace=wrap;html=1;aspect=fixed;strokeWidth=0.75;fillColor=#E6E6E6;opacity=25;" vertex="1" parent="1">
          <mxGeometry x="140" y="820" width="20" height="20" as="geometry" />
        </mxCell>
        <mxCell id="YWkT2PEXVsnUWsBG_KgA-118" value="&lt;font color=&quot;#999999&quot; style=&quot;font-size: 9px;&quot; face=&quot;Times New Roman&quot;&gt;&amp;nbsp;P5&lt;/font&gt;" style="curved=1;endArrow=open;html=1;rounded=0;endFill=0;entryX=1;entryY=0;entryDx=0;entryDy=0;exitX=0;exitY=1;exitDx=0;exitDy=0;opacity=25;dashed=1;" edge="1" parent="1" source="YWkT2PEXVsnUWsBG_KgA-88" target="YWkT2PEXVsnUWsBG_KgA-111">
          <mxGeometry width="50" height="50" relative="1" as="geometry">
            <mxPoint x="80" y="654" as="sourcePoint" />
            <mxPoint x="34" y="700" as="targetPoint" />
            <Array as="points" />
          </mxGeometry>
        </mxCell>
        <mxCell id="YWkT2PEXVsnUWsBG_KgA-119" value="&lt;font color=&quot;#999999&quot; style=&quot;font-size: 9px;&quot; face=&quot;Times New Roman&quot;&gt;&amp;nbsp;P5&lt;/font&gt;" style="curved=1;endArrow=open;html=1;rounded=0;endFill=0;entryX=1;entryY=0;entryDx=0;entryDy=0;exitX=0;exitY=1;exitDx=0;exitDy=0;opacity=25;dashed=1;labelBackgroundColor=#FFE8E8;" edge="1" parent="1" source="YWkT2PEXVsnUWsBG_KgA-93" target="YWkT2PEXVsnUWsBG_KgA-112">
          <mxGeometry width="50" height="50" relative="1" as="geometry">
            <mxPoint x="93" y="667" as="sourcePoint" />
            <mxPoint x="47" y="713" as="targetPoint" />
            <Array as="points" />
          </mxGeometry>
        </mxCell>
        <mxCell id="YWkT2PEXVsnUWsBG_KgA-120" value="&lt;font color=&quot;#999999&quot; style=&quot;font-size: 9px;&quot; face=&quot;Times New Roman&quot;&gt;&amp;nbsp;P5&lt;/font&gt;" style="curved=1;endArrow=open;html=1;rounded=0;endFill=0;entryX=1;entryY=0;entryDx=0;entryDy=0;exitX=0;exitY=1;exitDx=0;exitDy=0;opacity=25;dashed=1;" edge="1" parent="1" source="YWkT2PEXVsnUWsBG_KgA-92" target="YWkT2PEXVsnUWsBG_KgA-117">
          <mxGeometry width="50" height="50" relative="1" as="geometry">
            <mxPoint x="103" y="677" as="sourcePoint" />
            <mxPoint x="57" y="723" as="targetPoint" />
            <Array as="points" />
          </mxGeometry>
        </mxCell>
        <mxCell id="YWkT2PEXVsnUWsBG_KgA-121" value="&lt;font color=&quot;#999999&quot; style=&quot;font-size: 9px;&quot; face=&quot;Times New Roman&quot;&gt;&amp;nbsp;M3&lt;/font&gt;" style="curved=1;endArrow=open;html=1;rounded=0;endFill=0;entryX=0;entryY=0;entryDx=0;entryDy=0;exitX=1;exitY=1;exitDx=0;exitDy=0;opacity=25;dashed=1;" edge="1" parent="1" source="YWkT2PEXVsnUWsBG_KgA-92" target="YWkT2PEXVsnUWsBG_KgA-116">
          <mxGeometry width="50" height="50" relative="1" as="geometry">
            <mxPoint x="153" y="727" as="sourcePoint" />
            <mxPoint x="107" y="773" as="targetPoint" />
            <Array as="points" />
          </mxGeometry>
        </mxCell>
        <mxCell id="YWkT2PEXVsnUWsBG_KgA-122" value="&lt;font color=&quot;#999999&quot; style=&quot;font-size: 9px;&quot; face=&quot;Times New Roman&quot;&gt;&amp;nbsp;M3&lt;/font&gt;" style="curved=1;endArrow=open;html=1;rounded=0;endFill=0;entryX=0;entryY=0;entryDx=0;entryDy=0;exitX=1;exitY=1;exitDx=0;exitDy=0;opacity=25;dashed=1;" edge="1" parent="1" source="YWkT2PEXVsnUWsBG_KgA-91" target="YWkT2PEXVsnUWsBG_KgA-115">
          <mxGeometry width="50" height="50" relative="1" as="geometry">
            <mxPoint x="227" y="787" as="sourcePoint" />
            <mxPoint x="273" y="833" as="targetPoint" />
            <Array as="points" />
          </mxGeometry>
        </mxCell>
        <mxCell id="YWkT2PEXVsnUWsBG_KgA-123" value="&lt;font color=&quot;#999999&quot; style=&quot;font-size: 9px;&quot; face=&quot;Times New Roman&quot;&gt;&amp;nbsp;M3&lt;/font&gt;" style="curved=1;endArrow=open;html=1;rounded=0;endFill=0;entryX=0;entryY=0;entryDx=0;entryDy=0;exitX=1;exitY=1;exitDx=0;exitDy=0;opacity=25;dashed=1;" edge="1" parent="1" source="YWkT2PEXVsnUWsBG_KgA-90" target="YWkT2PEXVsnUWsBG_KgA-114">
          <mxGeometry x="0.0058" width="50" height="50" relative="1" as="geometry">
            <mxPoint x="237" y="797" as="sourcePoint" />
            <mxPoint x="283" y="843" as="targetPoint" />
            <Array as="points" />
            <mxPoint as="offset" />
          </mxGeometry>
        </mxCell>
        <mxCell id="YWkT2PEXVsnUWsBG_KgA-124" value="&lt;font color=&quot;#999999&quot; style=&quot;font-size: 9px;&quot; face=&quot;Times New Roman&quot;&gt;&amp;nbsp;M3&lt;/font&gt;" style="curved=1;endArrow=open;html=1;rounded=0;endFill=0;entryX=0;entryY=0;entryDx=0;entryDy=0;exitX=1;exitY=1;exitDx=0;exitDy=0;opacity=25;dashed=1;" edge="1" parent="1" source="YWkT2PEXVsnUWsBG_KgA-87" target="YWkT2PEXVsnUWsBG_KgA-113">
          <mxGeometry width="50" height="50" relative="1" as="geometry">
            <mxPoint x="247" y="807" as="sourcePoint" />
            <mxPoint x="293" y="853" as="targetPoint" />
            <Array as="points" />
          </mxGeometry>
        </mxCell>
        <mxCell id="YWkT2PEXVsnUWsBG_KgA-152" value="&lt;font style=&quot;font-size: 9px;&quot; face=&quot;Times New Roman&quot;&gt;&amp;nbsp;P5&lt;/font&gt;" style="curved=1;endArrow=open;html=1;rounded=0;endFill=0;entryX=1;entryY=0;entryDx=0;entryDy=0;exitX=0;exitY=1;exitDx=0;exitDy=0;labelBackgroundColor=#FFD6D1;" edge="1" parent="1" source="YWkT2PEXVsnUWsBG_KgA-86" target="YWkT2PEXVsnUWsBG_KgA-89">
          <mxGeometry width="50" height="50" relative="1" as="geometry">
            <mxPoint x="213" y="667" as="sourcePoint" />
            <mxPoint x="167" y="713" as="targetPoint" />
            <Array as="points" />
          </mxGeometry>
        </mxCell>
        <mxCell id="YWkT2PEXVsnUWsBG_KgA-171" value="&lt;font face=&quot;Times New Roman&quot;&gt;&lt;b&gt;F&lt;/b&gt;&lt;/font&gt;" style="ellipse;whiteSpace=wrap;html=1;aspect=fixed;strokeWidth=0.75;fillColor=#E6E6E6;" vertex="1" parent="1">
          <mxGeometry x="842" y="19.99999999999997" width="20" height="20" as="geometry" />
        </mxCell>
        <mxCell id="YWkT2PEXVsnUWsBG_KgA-172" value="&lt;font face=&quot;Times New Roman&quot;&gt;&lt;b&gt;C&lt;/b&gt;&lt;/font&gt;" style="ellipse;whiteSpace=wrap;html=1;aspect=fixed;strokeWidth=0.75;fillColor=#E6E6E6;" vertex="1" parent="1">
          <mxGeometry x="782" y="79.99999999999997" width="20" height="20" as="geometry" />
        </mxCell>
        <mxCell id="YWkT2PEXVsnUWsBG_KgA-173" value="&lt;font face=&quot;Times New Roman&quot;&gt;&lt;b&gt;A&lt;/b&gt;&lt;/font&gt;" style="ellipse;whiteSpace=wrap;html=1;aspect=fixed;strokeWidth=0.75;fillColor=#E6E6E6;" vertex="1" parent="1">
          <mxGeometry x="902" y="79.99999999999997" width="20" height="20" as="geometry" />
        </mxCell>
        <mxCell id="YWkT2PEXVsnUWsBG_KgA-174" value="&lt;font face=&quot;Times New Roman&quot;&gt;&lt;b&gt;G&lt;/b&gt;&lt;/font&gt;" style="ellipse;whiteSpace=wrap;html=1;aspect=fixed;strokeWidth=0.75;fillColor=#E6E6E6;" vertex="1" parent="1">
          <mxGeometry x="722" y="139.99999999999994" width="20" height="20" as="geometry" />
        </mxCell>
        <mxCell id="YWkT2PEXVsnUWsBG_KgA-175" value="&lt;font face=&quot;Times New Roman&quot;&gt;&lt;b&gt;E&lt;/b&gt;&lt;/font&gt;" style="ellipse;whiteSpace=wrap;html=1;aspect=fixed;strokeWidth=0.75;fillColor=#E6E6E6;" vertex="1" parent="1">
          <mxGeometry x="842" y="139.99999999999994" width="20" height="20" as="geometry" />
        </mxCell>
        <mxCell id="YWkT2PEXVsnUWsBG_KgA-176" value="&lt;font face=&quot;Times New Roman&quot;&gt;&lt;b&gt;C&lt;sup&gt;♯&lt;/sup&gt;&lt;/b&gt;&lt;/font&gt;" style="ellipse;whiteSpace=wrap;html=1;aspect=fixed;strokeWidth=0.75;fillColor=#E6E6E6;" vertex="1" parent="1">
          <mxGeometry x="962" y="139.99999999999994" width="20" height="20" as="geometry" />
        </mxCell>
        <mxCell id="YWkT2PEXVsnUWsBG_KgA-177" value="&lt;font face=&quot;Times New Roman&quot;&gt;&lt;b&gt;D&lt;/b&gt;&lt;/font&gt;" style="ellipse;whiteSpace=wrap;html=1;aspect=fixed;strokeWidth=0.75;fillColor=#E6E6E6;" vertex="1" parent="1">
          <mxGeometry x="662" y="199.99999999999994" width="20" height="20" as="geometry" />
        </mxCell>
        <mxCell id="YWkT2PEXVsnUWsBG_KgA-178" value="&lt;font face=&quot;Times New Roman&quot;&gt;&lt;b&gt;B&lt;/b&gt;&lt;/font&gt;" style="ellipse;whiteSpace=wrap;html=1;aspect=fixed;strokeWidth=0.75;fillColor=#E6E6E6;" vertex="1" parent="1">
          <mxGeometry x="782" y="199.99999999999994" width="20" height="20" as="geometry" />
        </mxCell>
        <mxCell id="YWkT2PEXVsnUWsBG_KgA-179" value="&lt;font face=&quot;Times New Roman&quot;&gt;&lt;b&gt;G&lt;sup&gt;♯&lt;/sup&gt;&lt;/b&gt;&lt;/font&gt;" style="ellipse;whiteSpace=wrap;html=1;aspect=fixed;strokeWidth=0.75;fillColor=#E6E6E6;" vertex="1" parent="1">
          <mxGeometry x="902" y="199.99999999999994" width="20" height="20" as="geometry" />
        </mxCell>
        <mxCell id="YWkT2PEXVsnUWsBG_KgA-180" value="&lt;font face=&quot;Times New Roman&quot;&gt;&lt;b&gt;D&lt;sup&gt;♯&lt;/sup&gt;&lt;/b&gt;&lt;/font&gt;" style="ellipse;whiteSpace=wrap;html=1;aspect=fixed;strokeWidth=0.75;fillColor=#E6E6E6;" vertex="1" parent="1">
          <mxGeometry x="842" y="260.00000000000006" width="20" height="20" as="geometry" />
        </mxCell>
        <mxCell id="YWkT2PEXVsnUWsBG_KgA-181" value="&lt;font face=&quot;Times New Roman&quot;&gt;&lt;b&gt;A&lt;sup&gt;♯&lt;/sup&gt;&lt;/b&gt;&lt;/font&gt;" style="ellipse;whiteSpace=wrap;html=1;aspect=fixed;strokeWidth=0.75;fillColor=#E6E6E6;" vertex="1" parent="1">
          <mxGeometry x="782" y="320.00000000000006" width="20" height="20" as="geometry" />
        </mxCell>
        <mxCell id="YWkT2PEXVsnUWsBG_KgA-182" value="&lt;font face=&quot;Times New Roman&quot;&gt;&lt;b&gt;F&lt;sup&gt;♯&lt;/sup&gt;&lt;/b&gt;&lt;/font&gt;" style="ellipse;whiteSpace=wrap;html=1;aspect=fixed;strokeWidth=0.75;fillColor=#E6E6E6;" vertex="1" parent="1">
          <mxGeometry x="722" y="260.00000000000006" width="20" height="20" as="geometry" />
        </mxCell>
        <mxCell id="YWkT2PEXVsnUWsBG_KgA-183" value="&lt;font style=&quot;font-size: 9px;&quot; face=&quot;Times New Roman&quot;&gt;&amp;nbsp;P5&lt;/font&gt;" style="curved=1;endArrow=open;html=1;rounded=0;entryX=1;entryY=0;entryDx=0;entryDy=0;endFill=0;" edge="1" parent="1" target="YWkT2PEXVsnUWsBG_KgA-172">
          <mxGeometry width="50" height="50" relative="1" as="geometry">
            <mxPoint x="845" y="36.99999999999997" as="sourcePoint" />
            <mxPoint x="742" y="370.00000000000006" as="targetPoint" />
            <Array as="points" />
          </mxGeometry>
        </mxCell>
        <mxCell id="YWkT2PEXVsnUWsBG_KgA-184" value="&lt;font style=&quot;font-size: 9px;&quot; face=&quot;Times New Roman&quot;&gt;&amp;nbsp;P5&lt;/font&gt;" style="curved=1;endArrow=open;html=1;rounded=0;exitX=0;exitY=1;exitDx=0;exitDy=0;endFill=0;entryX=1;entryY=0;entryDx=0;entryDy=0;" edge="1" parent="1" source="YWkT2PEXVsnUWsBG_KgA-172" target="YWkT2PEXVsnUWsBG_KgA-174">
          <mxGeometry width="50" height="50" relative="1" as="geometry">
            <mxPoint x="802" y="79.99999999999997" as="sourcePoint" />
            <mxPoint x="792" y="110.99999999999997" as="targetPoint" />
            <Array as="points" />
          </mxGeometry>
        </mxCell>
        <mxCell id="YWkT2PEXVsnUWsBG_KgA-185" value="&lt;font style=&quot;font-size: 9px;&quot; face=&quot;Times New Roman&quot;&gt;&amp;nbsp;P5&lt;/font&gt;" style="curved=1;endArrow=open;html=1;rounded=0;endFill=0;entryX=1;entryY=0;entryDx=0;entryDy=0;exitX=0;exitY=1;exitDx=0;exitDy=0;labelBackgroundColor=#F8CECC;" edge="1" parent="1" source="YWkT2PEXVsnUWsBG_KgA-174" target="YWkT2PEXVsnUWsBG_KgA-177">
          <mxGeometry width="50" height="50" relative="1" as="geometry">
            <mxPoint x="752" y="119.99999999999997" as="sourcePoint" />
            <mxPoint x="752" y="159.99999999999994" as="targetPoint" />
            <Array as="points" />
          </mxGeometry>
        </mxCell>
        <mxCell id="YWkT2PEXVsnUWsBG_KgA-186" value="&lt;font style=&quot;font-size: 9px;&quot; face=&quot;Times New Roman&quot;&gt;&amp;nbsp;P5&lt;/font&gt;" style="curved=1;endArrow=open;html=1;rounded=0;entryX=1;entryY=0;entryDx=0;entryDy=0;endFill=0;exitX=0;exitY=1;exitDx=0;exitDy=0;" edge="1" parent="1" source="YWkT2PEXVsnUWsBG_KgA-173" target="YWkT2PEXVsnUWsBG_KgA-175">
          <mxGeometry width="50" height="50" relative="1" as="geometry">
            <mxPoint x="868" y="69.99999999999997" as="sourcePoint" />
            <mxPoint x="842" y="95.99999999999997" as="targetPoint" />
            <Array as="points" />
          </mxGeometry>
        </mxCell>
        <mxCell id="YWkT2PEXVsnUWsBG_KgA-187" value="&lt;font style=&quot;font-size: 9px;&quot; face=&quot;Times New Roman&quot;&gt;&amp;nbsp;P5&lt;/font&gt;" style="curved=1;endArrow=open;html=1;rounded=0;endFill=0;entryX=1;entryY=0;entryDx=0;entryDy=0;exitX=0;exitY=1;exitDx=0;exitDy=0;labelBackgroundColor=#FFFFFF;" edge="1" parent="1" source="YWkT2PEXVsnUWsBG_KgA-178" target="YWkT2PEXVsnUWsBG_KgA-182">
          <mxGeometry width="50" height="50" relative="1" as="geometry">
            <mxPoint x="788" y="150.99999999999994" as="sourcePoint" />
            <mxPoint x="762" y="175.99999999999994" as="targetPoint" />
            <Array as="points" />
          </mxGeometry>
        </mxCell>
        <mxCell id="YWkT2PEXVsnUWsBG_KgA-188" value="&lt;font style=&quot;font-size: 9px;&quot; face=&quot;Times New Roman&quot;&gt;&amp;nbsp;P5&lt;/font&gt;" style="curved=1;endArrow=open;html=1;rounded=0;entryX=1;entryY=0;entryDx=0;entryDy=0;endFill=0;labelBackgroundColor=#F8CECC;" edge="1" parent="1" target="YWkT2PEXVsnUWsBG_KgA-179">
          <mxGeometry width="50" height="50" relative="1" as="geometry">
            <mxPoint x="965.24" y="156.85999999999996" as="sourcePoint" />
            <mxPoint x="892" y="139.99999999999994" as="targetPoint" />
            <Array as="points" />
          </mxGeometry>
        </mxCell>
        <mxCell id="YWkT2PEXVsnUWsBG_KgA-189" value="&lt;font style=&quot;font-size: 9px;&quot; face=&quot;Times New Roman&quot;&gt;&amp;nbsp;P5&lt;/font&gt;" style="curved=1;endArrow=open;html=1;rounded=0;exitX=0;exitY=1;exitDx=0;exitDy=0;endFill=0;entryX=1;entryY=0;entryDx=0;entryDy=0;labelBackgroundColor=#FFFFFF;" edge="1" parent="1" source="YWkT2PEXVsnUWsBG_KgA-179" target="YWkT2PEXVsnUWsBG_KgA-180">
          <mxGeometry width="50" height="50" relative="1" as="geometry">
            <mxPoint x="878" y="153.99999999999994" as="sourcePoint" />
            <mxPoint x="852" y="180.99999999999994" as="targetPoint" />
            <Array as="points" />
          </mxGeometry>
        </mxCell>
        <mxCell id="YWkT2PEXVsnUWsBG_KgA-190" value="&lt;font style=&quot;font-size: 9px;&quot; face=&quot;Times New Roman&quot;&gt;&amp;nbsp;P5&lt;/font&gt;" style="curved=1;endArrow=open;html=1;rounded=0;endFill=0;entryX=1;entryY=0;entryDx=0;entryDy=0;exitX=0;exitY=1;exitDx=0;exitDy=0;labelBackgroundColor=#FFFFFF;" edge="1" parent="1" source="YWkT2PEXVsnUWsBG_KgA-180" target="YWkT2PEXVsnUWsBG_KgA-181">
          <mxGeometry width="50" height="50" relative="1" as="geometry">
            <mxPoint x="838" y="194.99999999999994" as="sourcePoint" />
            <mxPoint x="812" y="219.99999999999994" as="targetPoint" />
            <Array as="points" />
          </mxGeometry>
        </mxCell>
        <mxCell id="YWkT2PEXVsnUWsBG_KgA-191" value="&lt;font style=&quot;font-size: 9px;&quot; face=&quot;Times New Roman&quot;&gt;M3&lt;/font&gt;" style="curved=1;endArrow=open;html=1;rounded=0;entryX=0;entryY=0;entryDx=0;entryDy=0;endFill=0;exitX=1;exitY=1;exitDx=0;exitDy=0;" edge="1" parent="1" source="YWkT2PEXVsnUWsBG_KgA-171" target="YWkT2PEXVsnUWsBG_KgA-173">
          <mxGeometry width="50" height="50" relative="1" as="geometry">
            <mxPoint x="855" y="46.99999999999997" as="sourcePoint" />
            <mxPoint x="829" y="72.99999999999997" as="targetPoint" />
            <Array as="points" />
          </mxGeometry>
        </mxCell>
        <mxCell id="YWkT2PEXVsnUWsBG_KgA-192" value="&lt;font style=&quot;font-size: 9px;&quot; face=&quot;Times New Roman&quot;&gt;M3&lt;/font&gt;" style="curved=1;endArrow=open;html=1;rounded=0;entryX=0;entryY=0;entryDx=0;entryDy=0;endFill=0;exitX=1;exitY=1;exitDx=0;exitDy=0;" edge="1" parent="1" source="YWkT2PEXVsnUWsBG_KgA-172" target="YWkT2PEXVsnUWsBG_KgA-175">
          <mxGeometry width="50" height="50" relative="1" as="geometry">
            <mxPoint x="869" y="46.99999999999997" as="sourcePoint" />
            <mxPoint x="895" y="72.99999999999997" as="targetPoint" />
            <Array as="points" />
          </mxGeometry>
        </mxCell>
        <mxCell id="YWkT2PEXVsnUWsBG_KgA-193" value="&lt;font style=&quot;font-size: 9px;&quot; face=&quot;Times New Roman&quot;&gt;M3&lt;/font&gt;" style="curved=1;endArrow=open;html=1;rounded=0;entryX=0;entryY=0;entryDx=0;entryDy=0;endFill=0;exitX=1;exitY=1;exitDx=0;exitDy=0;labelBackgroundColor=#F8CECC;" edge="1" parent="1" source="YWkT2PEXVsnUWsBG_KgA-174" target="YWkT2PEXVsnUWsBG_KgA-178">
          <mxGeometry width="50" height="50" relative="1" as="geometry">
            <mxPoint x="829" y="86.99999999999997" as="sourcePoint" />
            <mxPoint x="855" y="113.99999999999997" as="targetPoint" />
            <Array as="points" />
          </mxGeometry>
        </mxCell>
        <mxCell id="YWkT2PEXVsnUWsBG_KgA-194" value="&lt;font style=&quot;font-size: 9px;&quot; face=&quot;Times New Roman&quot;&gt;M3&lt;/font&gt;" style="curved=1;endArrow=open;html=1;rounded=0;entryX=0;entryY=0;entryDx=0;entryDy=0;endFill=0;exitX=1;exitY=1;exitDx=0;exitDy=0;" edge="1" parent="1" source="YWkT2PEXVsnUWsBG_KgA-177" target="YWkT2PEXVsnUWsBG_KgA-182">
          <mxGeometry width="50" height="50" relative="1" as="geometry">
            <mxPoint x="789" y="127.99999999999997" as="sourcePoint" />
            <mxPoint x="815" y="152.99999999999994" as="targetPoint" />
            <Array as="points" />
          </mxGeometry>
        </mxCell>
        <mxCell id="YWkT2PEXVsnUWsBG_KgA-195" value="&lt;font style=&quot;font-size: 9px;&quot; face=&quot;Times New Roman&quot;&gt;M3&lt;/font&gt;" style="curved=1;endArrow=open;html=1;rounded=0;entryX=0;entryY=0;entryDx=0;entryDy=0;endFill=0;exitX=1;exitY=1;exitDx=0;exitDy=0;" edge="1" parent="1" source="YWkT2PEXVsnUWsBG_KgA-173" target="YWkT2PEXVsnUWsBG_KgA-176">
          <mxGeometry width="50" height="50" relative="1" as="geometry">
            <mxPoint x="912" y="69.99999999999997" as="sourcePoint" />
            <mxPoint x="938" y="95.99999999999997" as="targetPoint" />
            <Array as="points" />
          </mxGeometry>
        </mxCell>
        <mxCell id="YWkT2PEXVsnUWsBG_KgA-196" value="&lt;font style=&quot;font-size: 9px;&quot; face=&quot;Times New Roman&quot;&gt;M3&lt;/font&gt;" style="curved=1;endArrow=open;html=1;rounded=0;entryX=0;entryY=0;entryDx=0;entryDy=0;endFill=0;exitX=1;exitY=1;exitDx=0;exitDy=0;labelBackgroundColor=#F8CECC;" edge="1" parent="1" source="YWkT2PEXVsnUWsBG_KgA-175" target="YWkT2PEXVsnUWsBG_KgA-179">
          <mxGeometry width="50" height="50" relative="1" as="geometry">
            <mxPoint x="759" y="176.99999999999994" as="sourcePoint" />
            <mxPoint x="785" y="202.99999999999994" as="targetPoint" />
            <Array as="points" />
          </mxGeometry>
        </mxCell>
        <mxCell id="YWkT2PEXVsnUWsBG_KgA-197" value="&lt;font style=&quot;font-size: 9px;&quot; face=&quot;Times New Roman&quot;&gt;M3&lt;/font&gt;" style="curved=1;endArrow=open;html=1;rounded=0;endFill=0;exitX=1;exitY=1;exitDx=0;exitDy=0;" edge="1" parent="1" source="YWkT2PEXVsnUWsBG_KgA-178" target="YWkT2PEXVsnUWsBG_KgA-180">
          <mxGeometry width="50" height="50" relative="1" as="geometry">
            <mxPoint x="769" y="186.99999999999994" as="sourcePoint" />
            <mxPoint x="795" y="212.99999999999994" as="targetPoint" />
            <Array as="points" />
          </mxGeometry>
        </mxCell>
        <mxCell id="YWkT2PEXVsnUWsBG_KgA-198" value="&lt;font style=&quot;font-size: 9px;&quot; face=&quot;Times New Roman&quot;&gt;M3&lt;/font&gt;" style="curved=1;endArrow=open;html=1;rounded=0;entryX=0;entryY=0;entryDx=0;entryDy=0;endFill=0;exitX=1;exitY=1;exitDx=0;exitDy=0;" edge="1" parent="1" source="YWkT2PEXVsnUWsBG_KgA-182" target="YWkT2PEXVsnUWsBG_KgA-181">
          <mxGeometry width="50" height="50" relative="1" as="geometry">
            <mxPoint x="742" y="213.99999999999994" as="sourcePoint" />
            <mxPoint x="768" y="240.00000000000006" as="targetPoint" />
            <Array as="points" />
          </mxGeometry>
        </mxCell>
        <mxCell id="YWkT2PEXVsnUWsBG_KgA-199" value="&lt;font color=&quot;#999999&quot; face=&quot;Times New Roman&quot;&gt;&lt;b&gt;A&lt;/b&gt;&lt;/font&gt;" style="ellipse;whiteSpace=wrap;html=1;aspect=fixed;strokeWidth=0.75;fillColor=#E6E6E6;opacity=25;" vertex="1" parent="1">
          <mxGeometry x="602" y="260.00000000000006" width="20" height="20" as="geometry" />
        </mxCell>
        <mxCell id="YWkT2PEXVsnUWsBG_KgA-200" value="&lt;font color=&quot;#999999&quot; face=&quot;Times New Roman&quot;&gt;&lt;b&gt;C&lt;/b&gt;&lt;/font&gt;&lt;b style=&quot;border-color: var(--border-color); font-family: &amp;quot;Times New Roman&amp;quot;;&quot;&gt;&lt;sup style=&quot;border-color: var(--border-color);&quot;&gt;&lt;font color=&quot;#999999&quot;&gt;♯&lt;/font&gt;&lt;/sup&gt;&lt;/b&gt;" style="ellipse;whiteSpace=wrap;html=1;aspect=fixed;strokeWidth=0.75;fillColor=#E6E6E6;opacity=25;" vertex="1" parent="1">
          <mxGeometry x="662" y="320.00000000000006" width="20" height="20" as="geometry" />
        </mxCell>
        <mxCell id="YWkT2PEXVsnUWsBG_KgA-201" value="&lt;font color=&quot;#999999&quot; face=&quot;Times New Roman&quot;&gt;&lt;b&gt;F&lt;/b&gt;&lt;/font&gt;" style="ellipse;whiteSpace=wrap;html=1;aspect=fixed;strokeWidth=0.75;fillColor=#E6E6E6;opacity=25;" vertex="1" parent="1">
          <mxGeometry x="1025" y="201.08999999999997" width="20" height="20" as="geometry" />
        </mxCell>
        <mxCell id="YWkT2PEXVsnUWsBG_KgA-202" value="&lt;font color=&quot;#999999&quot; face=&quot;Times New Roman&quot;&gt;&lt;b&gt;C&lt;/b&gt;&lt;/font&gt;" style="ellipse;whiteSpace=wrap;html=1;aspect=fixed;strokeWidth=0.75;fillColor=#E6E6E6;opacity=25;" vertex="1" parent="1">
          <mxGeometry x="964" y="260.00000000000006" width="20" height="20" as="geometry" />
        </mxCell>
        <mxCell id="YWkT2PEXVsnUWsBG_KgA-203" value="&lt;font color=&quot;#999999&quot; face=&quot;Times New Roman&quot;&gt;&lt;b&gt;G&lt;/b&gt;&lt;/font&gt;" style="ellipse;whiteSpace=wrap;html=1;aspect=fixed;strokeWidth=0.75;fillColor=#E6E6E6;opacity=25;" vertex="1" parent="1">
          <mxGeometry x="902" y="320.00000000000006" width="20" height="20" as="geometry" />
        </mxCell>
        <mxCell id="YWkT2PEXVsnUWsBG_KgA-204" value="&lt;font color=&quot;#999999&quot; face=&quot;Times New Roman&quot;&gt;&lt;b&gt;D&lt;/b&gt;&lt;/font&gt;" style="ellipse;whiteSpace=wrap;html=1;aspect=fixed;strokeWidth=0.75;fillColor=#E6E6E6;opacity=25;" vertex="1" parent="1">
          <mxGeometry x="842" y="380.00000000000006" width="20" height="20" as="geometry" />
        </mxCell>
        <mxCell id="YWkT2PEXVsnUWsBG_KgA-205" value="&lt;font color=&quot;#999999&quot; face=&quot;Times New Roman&quot;&gt;&lt;b&gt;F&lt;/b&gt;&lt;/font&gt;" style="ellipse;whiteSpace=wrap;html=1;aspect=fixed;strokeWidth=0.75;fillColor=#E6E6E6;opacity=25;" vertex="1" parent="1">
          <mxGeometry x="722" y="380.00000000000006" width="20" height="20" as="geometry" />
        </mxCell>
        <mxCell id="YWkT2PEXVsnUWsBG_KgA-206" value="&lt;font color=&quot;#999999&quot; style=&quot;font-size: 9px;&quot; face=&quot;Times New Roman&quot;&gt;&amp;nbsp;P5&lt;/font&gt;" style="curved=1;endArrow=open;html=1;rounded=0;endFill=0;entryX=1;entryY=0;entryDx=0;entryDy=0;exitX=0;exitY=1;exitDx=0;exitDy=0;opacity=25;dashed=1;" edge="1" parent="1" source="YWkT2PEXVsnUWsBG_KgA-177" target="YWkT2PEXVsnUWsBG_KgA-199">
          <mxGeometry width="50" height="50" relative="1" as="geometry">
            <mxPoint x="662" y="213.99999999999994" as="sourcePoint" />
            <mxPoint x="616" y="260.00000000000006" as="targetPoint" />
            <Array as="points" />
          </mxGeometry>
        </mxCell>
        <mxCell id="YWkT2PEXVsnUWsBG_KgA-207" value="&lt;font color=&quot;#999999&quot; style=&quot;font-size: 9px;&quot; face=&quot;Times New Roman&quot;&gt;&amp;nbsp;P5&lt;/font&gt;" style="curved=1;endArrow=open;html=1;rounded=0;endFill=0;entryX=1;entryY=0;entryDx=0;entryDy=0;exitX=0;exitY=1;exitDx=0;exitDy=0;opacity=25;dashed=1;labelBackgroundColor=#FFFFFF;" edge="1" parent="1" source="YWkT2PEXVsnUWsBG_KgA-182" target="YWkT2PEXVsnUWsBG_KgA-200">
          <mxGeometry width="50" height="50" relative="1" as="geometry">
            <mxPoint x="675" y="226.99999999999994" as="sourcePoint" />
            <mxPoint x="629" y="273.00000000000006" as="targetPoint" />
            <Array as="points" />
          </mxGeometry>
        </mxCell>
        <mxCell id="YWkT2PEXVsnUWsBG_KgA-208" value="&lt;font color=&quot;#999999&quot; style=&quot;font-size: 9px;&quot; face=&quot;Times New Roman&quot;&gt;&amp;nbsp;P5&lt;/font&gt;" style="curved=1;endArrow=open;html=1;rounded=0;endFill=0;entryX=1;entryY=0;entryDx=0;entryDy=0;exitX=0;exitY=1;exitDx=0;exitDy=0;opacity=25;dashed=1;" edge="1" parent="1" source="YWkT2PEXVsnUWsBG_KgA-181" target="YWkT2PEXVsnUWsBG_KgA-205">
          <mxGeometry width="50" height="50" relative="1" as="geometry">
            <mxPoint x="685" y="237.00000000000006" as="sourcePoint" />
            <mxPoint x="639" y="283.00000000000006" as="targetPoint" />
            <Array as="points" />
          </mxGeometry>
        </mxCell>
        <mxCell id="YWkT2PEXVsnUWsBG_KgA-209" value="&lt;font color=&quot;#999999&quot; style=&quot;font-size: 9px;&quot; face=&quot;Times New Roman&quot;&gt;&amp;nbsp;M3&lt;/font&gt;" style="curved=1;endArrow=open;html=1;rounded=0;endFill=0;entryX=0;entryY=0;entryDx=0;entryDy=0;exitX=1;exitY=1;exitDx=0;exitDy=0;opacity=25;dashed=1;" edge="1" parent="1" source="YWkT2PEXVsnUWsBG_KgA-181" target="YWkT2PEXVsnUWsBG_KgA-204">
          <mxGeometry width="50" height="50" relative="1" as="geometry">
            <mxPoint x="735" y="287.00000000000006" as="sourcePoint" />
            <mxPoint x="689" y="333.00000000000006" as="targetPoint" />
            <Array as="points" />
          </mxGeometry>
        </mxCell>
        <mxCell id="YWkT2PEXVsnUWsBG_KgA-210" value="&lt;font color=&quot;#999999&quot; style=&quot;font-size: 9px;&quot; face=&quot;Times New Roman&quot;&gt;&amp;nbsp;M3&lt;/font&gt;" style="curved=1;endArrow=open;html=1;rounded=0;endFill=0;entryX=0;entryY=0;entryDx=0;entryDy=0;exitX=1;exitY=1;exitDx=0;exitDy=0;opacity=25;dashed=1;" edge="1" parent="1" source="YWkT2PEXVsnUWsBG_KgA-180" target="YWkT2PEXVsnUWsBG_KgA-203">
          <mxGeometry width="50" height="50" relative="1" as="geometry">
            <mxPoint x="809" y="347.00000000000006" as="sourcePoint" />
            <mxPoint x="855" y="393.00000000000006" as="targetPoint" />
            <Array as="points" />
          </mxGeometry>
        </mxCell>
        <mxCell id="YWkT2PEXVsnUWsBG_KgA-211" value="&lt;font color=&quot;#999999&quot; style=&quot;font-size: 9px;&quot; face=&quot;Times New Roman&quot;&gt;&amp;nbsp;M3&lt;/font&gt;" style="curved=1;endArrow=open;html=1;rounded=0;endFill=0;entryX=0;entryY=0;entryDx=0;entryDy=0;exitX=1;exitY=1;exitDx=0;exitDy=0;opacity=25;dashed=1;" edge="1" parent="1" source="YWkT2PEXVsnUWsBG_KgA-179" target="YWkT2PEXVsnUWsBG_KgA-202">
          <mxGeometry width="50" height="50" relative="1" as="geometry">
            <mxPoint x="819" y="357.00000000000006" as="sourcePoint" />
            <mxPoint x="865" y="403.00000000000006" as="targetPoint" />
            <Array as="points" />
          </mxGeometry>
        </mxCell>
        <mxCell id="YWkT2PEXVsnUWsBG_KgA-212" value="&lt;font color=&quot;#999999&quot; style=&quot;font-size: 9px;&quot; face=&quot;Times New Roman&quot;&gt;&amp;nbsp;M3&lt;/font&gt;" style="curved=1;endArrow=open;html=1;rounded=0;endFill=0;entryX=0;entryY=0;entryDx=0;entryDy=0;exitX=1;exitY=1;exitDx=0;exitDy=0;opacity=25;dashed=1;" edge="1" parent="1" source="YWkT2PEXVsnUWsBG_KgA-176" target="YWkT2PEXVsnUWsBG_KgA-201">
          <mxGeometry width="50" height="50" relative="1" as="geometry">
            <mxPoint x="829" y="367.00000000000006" as="sourcePoint" />
            <mxPoint x="875" y="413.0000000000001" as="targetPoint" />
            <Array as="points" />
          </mxGeometry>
        </mxCell>
        <mxCell id="YWkT2PEXVsnUWsBG_KgA-213" value="&lt;font style=&quot;font-size: 9px;&quot; face=&quot;Times New Roman&quot;&gt;&amp;nbsp;P5&lt;/font&gt;" style="curved=1;endArrow=open;html=1;rounded=0;endFill=0;entryX=1;entryY=0;entryDx=0;entryDy=0;exitX=0;exitY=1;exitDx=0;exitDy=0;labelBackgroundColor=#FFFFFF;" edge="1" parent="1" source="YWkT2PEXVsnUWsBG_KgA-175" target="YWkT2PEXVsnUWsBG_KgA-178">
          <mxGeometry width="50" height="50" relative="1" as="geometry">
            <mxPoint x="795" y="226.99999999999994" as="sourcePoint" />
            <mxPoint x="749" y="273.00000000000006" as="targetPoint" />
            <Array as="points" />
          </mxGeometry>
        </mxCell>
        <mxCell id="YWkT2PEXVsnUWsBG_KgA-214" value="&lt;font face=&quot;Times New Roman&quot;&gt;&lt;b&gt;F&lt;/b&gt;&lt;/font&gt;" style="ellipse;whiteSpace=wrap;html=1;aspect=fixed;strokeWidth=0.75;fillColor=#E6E6E6;" vertex="1" parent="1">
          <mxGeometry x="822" y="460" width="20" height="20" as="geometry" />
        </mxCell>
        <mxCell id="YWkT2PEXVsnUWsBG_KgA-215" value="&lt;font face=&quot;Times New Roman&quot;&gt;&lt;b&gt;C&lt;/b&gt;&lt;/font&gt;" style="ellipse;whiteSpace=wrap;html=1;aspect=fixed;strokeWidth=0.75;fillColor=#E6E6E6;" vertex="1" parent="1">
          <mxGeometry x="762" y="520" width="20" height="20" as="geometry" />
        </mxCell>
        <mxCell id="YWkT2PEXVsnUWsBG_KgA-216" value="&lt;font face=&quot;Times New Roman&quot;&gt;&lt;b&gt;A&lt;/b&gt;&lt;/font&gt;" style="ellipse;whiteSpace=wrap;html=1;aspect=fixed;strokeWidth=0.75;fillColor=#E6E6E6;" vertex="1" parent="1">
          <mxGeometry x="882" y="520" width="20" height="20" as="geometry" />
        </mxCell>
        <mxCell id="YWkT2PEXVsnUWsBG_KgA-217" value="&lt;font face=&quot;Times New Roman&quot;&gt;&lt;b&gt;G&lt;/b&gt;&lt;/font&gt;" style="ellipse;whiteSpace=wrap;html=1;aspect=fixed;strokeWidth=0.75;fillColor=#E6E6E6;" vertex="1" parent="1">
          <mxGeometry x="702" y="580" width="20" height="20" as="geometry" />
        </mxCell>
        <mxCell id="YWkT2PEXVsnUWsBG_KgA-218" value="&lt;font face=&quot;Times New Roman&quot;&gt;&lt;b&gt;E&lt;/b&gt;&lt;/font&gt;" style="ellipse;whiteSpace=wrap;html=1;aspect=fixed;strokeWidth=0.75;fillColor=#E6E6E6;" vertex="1" parent="1">
          <mxGeometry x="822" y="580" width="20" height="20" as="geometry" />
        </mxCell>
        <mxCell id="YWkT2PEXVsnUWsBG_KgA-219" value="&lt;font face=&quot;Times New Roman&quot;&gt;&lt;b&gt;C&lt;sup&gt;♯&lt;/sup&gt;&lt;/b&gt;&lt;/font&gt;" style="ellipse;whiteSpace=wrap;html=1;aspect=fixed;strokeWidth=0.75;fillColor=#E6E6E6;" vertex="1" parent="1">
          <mxGeometry x="942" y="580" width="20" height="20" as="geometry" />
        </mxCell>
        <mxCell id="YWkT2PEXVsnUWsBG_KgA-220" value="&lt;font face=&quot;Times New Roman&quot;&gt;&lt;b&gt;D&lt;/b&gt;&lt;/font&gt;" style="ellipse;whiteSpace=wrap;html=1;aspect=fixed;strokeWidth=0.75;fillColor=#E6E6E6;" vertex="1" parent="1">
          <mxGeometry x="642" y="640" width="20" height="20" as="geometry" />
        </mxCell>
        <mxCell id="YWkT2PEXVsnUWsBG_KgA-221" value="&lt;font face=&quot;Times New Roman&quot;&gt;&lt;b&gt;B&lt;/b&gt;&lt;/font&gt;" style="ellipse;whiteSpace=wrap;html=1;aspect=fixed;strokeWidth=0.75;fillColor=#E6E6E6;" vertex="1" parent="1">
          <mxGeometry x="762" y="640" width="20" height="20" as="geometry" />
        </mxCell>
        <mxCell id="YWkT2PEXVsnUWsBG_KgA-222" value="&lt;font face=&quot;Times New Roman&quot;&gt;&lt;b&gt;G&lt;sup&gt;♯&lt;/sup&gt;&lt;/b&gt;&lt;/font&gt;" style="ellipse;whiteSpace=wrap;html=1;aspect=fixed;strokeWidth=0.75;fillColor=#E6E6E6;" vertex="1" parent="1">
          <mxGeometry x="882" y="640" width="20" height="20" as="geometry" />
        </mxCell>
        <mxCell id="YWkT2PEXVsnUWsBG_KgA-223" value="&lt;font face=&quot;Times New Roman&quot;&gt;&lt;b&gt;D&lt;sup&gt;♯&lt;/sup&gt;&lt;/b&gt;&lt;/font&gt;" style="ellipse;whiteSpace=wrap;html=1;aspect=fixed;strokeWidth=0.75;fillColor=#E6E6E6;" vertex="1" parent="1">
          <mxGeometry x="822" y="700" width="20" height="20" as="geometry" />
        </mxCell>
        <mxCell id="YWkT2PEXVsnUWsBG_KgA-224" value="&lt;font face=&quot;Times New Roman&quot;&gt;&lt;b&gt;A&lt;sup&gt;♯&lt;/sup&gt;&lt;/b&gt;&lt;/font&gt;" style="ellipse;whiteSpace=wrap;html=1;aspect=fixed;strokeWidth=0.75;fillColor=#E6E6E6;" vertex="1" parent="1">
          <mxGeometry x="762" y="760" width="20" height="20" as="geometry" />
        </mxCell>
        <mxCell id="YWkT2PEXVsnUWsBG_KgA-225" value="&lt;font face=&quot;Times New Roman&quot;&gt;&lt;b&gt;F&lt;sup&gt;♯&lt;/sup&gt;&lt;/b&gt;&lt;/font&gt;" style="ellipse;whiteSpace=wrap;html=1;aspect=fixed;strokeWidth=0.75;fillColor=#E6E6E6;" vertex="1" parent="1">
          <mxGeometry x="702" y="700" width="20" height="20" as="geometry" />
        </mxCell>
        <mxCell id="YWkT2PEXVsnUWsBG_KgA-226" value="&lt;font style=&quot;font-size: 9px;&quot; face=&quot;Times New Roman&quot;&gt;&amp;nbsp;P5&lt;/font&gt;" style="curved=1;endArrow=open;html=1;rounded=0;entryX=1;entryY=0;entryDx=0;entryDy=0;endFill=0;labelBackgroundColor=#F8CECC;" edge="1" parent="1" target="YWkT2PEXVsnUWsBG_KgA-215">
          <mxGeometry width="50" height="50" relative="1" as="geometry">
            <mxPoint x="825" y="477" as="sourcePoint" />
            <mxPoint x="722" y="810" as="targetPoint" />
            <Array as="points" />
          </mxGeometry>
        </mxCell>
        <mxCell id="YWkT2PEXVsnUWsBG_KgA-227" value="&lt;font style=&quot;font-size: 9px;&quot; face=&quot;Times New Roman&quot;&gt;&amp;nbsp;P5&lt;/font&gt;" style="curved=1;endArrow=open;html=1;rounded=0;exitX=0;exitY=1;exitDx=0;exitDy=0;endFill=0;entryX=1;entryY=0;entryDx=0;entryDy=0;" edge="1" parent="1" source="YWkT2PEXVsnUWsBG_KgA-215" target="YWkT2PEXVsnUWsBG_KgA-217">
          <mxGeometry width="50" height="50" relative="1" as="geometry">
            <mxPoint x="782" y="520" as="sourcePoint" />
            <mxPoint x="772" y="551" as="targetPoint" />
            <Array as="points" />
          </mxGeometry>
        </mxCell>
        <mxCell id="YWkT2PEXVsnUWsBG_KgA-228" value="&lt;font style=&quot;font-size: 9px;&quot; face=&quot;Times New Roman&quot;&gt;&amp;nbsp;P5&lt;/font&gt;" style="curved=1;endArrow=open;html=1;rounded=0;endFill=0;entryX=1;entryY=0;entryDx=0;entryDy=0;exitX=0;exitY=1;exitDx=0;exitDy=0;" edge="1" parent="1" source="YWkT2PEXVsnUWsBG_KgA-217" target="YWkT2PEXVsnUWsBG_KgA-220">
          <mxGeometry width="50" height="50" relative="1" as="geometry">
            <mxPoint x="732" y="560" as="sourcePoint" />
            <mxPoint x="732" y="600" as="targetPoint" />
            <Array as="points" />
          </mxGeometry>
        </mxCell>
        <mxCell id="YWkT2PEXVsnUWsBG_KgA-229" value="&lt;font style=&quot;font-size: 9px;&quot; face=&quot;Times New Roman&quot;&gt;&amp;nbsp;P5&lt;/font&gt;" style="curved=1;endArrow=open;html=1;rounded=0;entryX=1;entryY=0;entryDx=0;entryDy=0;endFill=0;exitX=0;exitY=1;exitDx=0;exitDy=0;labelBackgroundColor=#F8CECC;" edge="1" parent="1" source="YWkT2PEXVsnUWsBG_KgA-216" target="YWkT2PEXVsnUWsBG_KgA-218">
          <mxGeometry width="50" height="50" relative="1" as="geometry">
            <mxPoint x="848" y="510" as="sourcePoint" />
            <mxPoint x="822" y="536" as="targetPoint" />
            <Array as="points" />
          </mxGeometry>
        </mxCell>
        <mxCell id="YWkT2PEXVsnUWsBG_KgA-230" value="&lt;font style=&quot;font-size: 9px;&quot; face=&quot;Times New Roman&quot;&gt;&amp;nbsp;P5&lt;/font&gt;" style="curved=1;endArrow=open;html=1;rounded=0;exitX=0;exitY=1;exitDx=0;exitDy=0;endFill=0;entryX=1;entryY=0;entryDx=0;entryDy=0;" edge="1" parent="1" source="YWkT2PEXVsnUWsBG_KgA-218" target="YWkT2PEXVsnUWsBG_KgA-221">
          <mxGeometry width="50" height="50" relative="1" as="geometry">
            <mxPoint x="808" y="550" as="sourcePoint" />
            <mxPoint x="782" y="577" as="targetPoint" />
            <Array as="points" />
          </mxGeometry>
        </mxCell>
        <mxCell id="YWkT2PEXVsnUWsBG_KgA-231" value="&lt;font style=&quot;font-size: 9px;&quot; face=&quot;Times New Roman&quot;&gt;&amp;nbsp;P5&lt;/font&gt;" style="curved=1;endArrow=open;html=1;rounded=0;endFill=0;entryX=1;entryY=0;entryDx=0;entryDy=0;exitX=0;exitY=1;exitDx=0;exitDy=0;labelBackgroundColor=#F8CECC;" edge="1" parent="1" source="YWkT2PEXVsnUWsBG_KgA-221" target="YWkT2PEXVsnUWsBG_KgA-225">
          <mxGeometry width="50" height="50" relative="1" as="geometry">
            <mxPoint x="768" y="591" as="sourcePoint" />
            <mxPoint x="742" y="616" as="targetPoint" />
            <Array as="points" />
          </mxGeometry>
        </mxCell>
        <mxCell id="YWkT2PEXVsnUWsBG_KgA-232" value="&lt;font style=&quot;font-size: 9px;&quot; face=&quot;Times New Roman&quot;&gt;&amp;nbsp;P5&lt;/font&gt;" style="curved=1;endArrow=open;html=1;rounded=0;entryX=1;entryY=0;entryDx=0;entryDy=0;endFill=0;exitX=0;exitY=1;exitDx=0;exitDy=0;labelBackgroundColor=#FFFFFF;" edge="1" parent="1" source="YWkT2PEXVsnUWsBG_KgA-219" target="YWkT2PEXVsnUWsBG_KgA-222">
          <mxGeometry width="50" height="50" relative="1" as="geometry">
            <mxPoint x="898" y="554" as="sourcePoint" />
            <mxPoint x="872" y="580" as="targetPoint" />
            <Array as="points" />
          </mxGeometry>
        </mxCell>
        <mxCell id="YWkT2PEXVsnUWsBG_KgA-233" value="&lt;font style=&quot;font-size: 9px;&quot; face=&quot;Times New Roman&quot;&gt;&amp;nbsp;P5&lt;/font&gt;" style="curved=1;endArrow=open;html=1;rounded=0;exitX=0;exitY=1;exitDx=0;exitDy=0;endFill=0;entryX=1;entryY=0;entryDx=0;entryDy=0;labelBackgroundColor=#F8CECC;" edge="1" parent="1" source="YWkT2PEXVsnUWsBG_KgA-222" target="YWkT2PEXVsnUWsBG_KgA-223">
          <mxGeometry width="50" height="50" relative="1" as="geometry">
            <mxPoint x="858" y="594" as="sourcePoint" />
            <mxPoint x="832" y="621" as="targetPoint" />
            <Array as="points" />
          </mxGeometry>
        </mxCell>
        <mxCell id="YWkT2PEXVsnUWsBG_KgA-234" value="&lt;font style=&quot;font-size: 9px;&quot; face=&quot;Times New Roman&quot;&gt;&amp;nbsp;P5&lt;/font&gt;" style="curved=1;endArrow=open;html=1;rounded=0;endFill=0;entryX=1;entryY=0;entryDx=0;entryDy=0;exitX=0;exitY=1;exitDx=0;exitDy=0;" edge="1" parent="1" source="YWkT2PEXVsnUWsBG_KgA-223" target="YWkT2PEXVsnUWsBG_KgA-224">
          <mxGeometry width="50" height="50" relative="1" as="geometry">
            <mxPoint x="818" y="635" as="sourcePoint" />
            <mxPoint x="792" y="660" as="targetPoint" />
            <Array as="points" />
          </mxGeometry>
        </mxCell>
        <mxCell id="YWkT2PEXVsnUWsBG_KgA-235" value="&lt;font style=&quot;font-size: 9px;&quot; face=&quot;Times New Roman&quot;&gt;M3&lt;/font&gt;" style="curved=1;endArrow=open;html=1;rounded=0;entryX=0;entryY=0;entryDx=0;entryDy=0;endFill=0;exitX=1;exitY=1;exitDx=0;exitDy=0;labelBackgroundColor=#F8CECC;" edge="1" parent="1" source="YWkT2PEXVsnUWsBG_KgA-214" target="YWkT2PEXVsnUWsBG_KgA-216">
          <mxGeometry width="50" height="50" relative="1" as="geometry">
            <mxPoint x="835" y="487" as="sourcePoint" />
            <mxPoint x="809" y="513" as="targetPoint" />
            <Array as="points" />
          </mxGeometry>
        </mxCell>
        <mxCell id="YWkT2PEXVsnUWsBG_KgA-236" value="&lt;font style=&quot;font-size: 9px;&quot; face=&quot;Times New Roman&quot;&gt;M3&lt;/font&gt;" style="curved=1;endArrow=open;html=1;rounded=0;entryX=0;entryY=0;entryDx=0;entryDy=0;endFill=0;exitX=1;exitY=1;exitDx=0;exitDy=0;labelBackgroundColor=#F8CECC;" edge="1" parent="1" source="YWkT2PEXVsnUWsBG_KgA-215" target="YWkT2PEXVsnUWsBG_KgA-218">
          <mxGeometry width="50" height="50" relative="1" as="geometry">
            <mxPoint x="849" y="487" as="sourcePoint" />
            <mxPoint x="875" y="513" as="targetPoint" />
            <Array as="points" />
          </mxGeometry>
        </mxCell>
        <mxCell id="YWkT2PEXVsnUWsBG_KgA-237" value="&lt;font style=&quot;font-size: 9px;&quot; face=&quot;Times New Roman&quot;&gt;M3&lt;/font&gt;" style="curved=1;endArrow=open;html=1;rounded=0;entryX=0;entryY=0;entryDx=0;entryDy=0;endFill=0;exitX=1;exitY=1;exitDx=0;exitDy=0;" edge="1" parent="1" source="YWkT2PEXVsnUWsBG_KgA-217" target="YWkT2PEXVsnUWsBG_KgA-221">
          <mxGeometry width="50" height="50" relative="1" as="geometry">
            <mxPoint x="809" y="527" as="sourcePoint" />
            <mxPoint x="835" y="554" as="targetPoint" />
            <Array as="points" />
          </mxGeometry>
        </mxCell>
        <mxCell id="YWkT2PEXVsnUWsBG_KgA-238" value="&lt;font style=&quot;font-size: 9px;&quot; face=&quot;Times New Roman&quot;&gt;M3&lt;/font&gt;" style="curved=1;endArrow=open;html=1;rounded=0;entryX=0;entryY=0;entryDx=0;entryDy=0;endFill=0;exitX=1;exitY=1;exitDx=0;exitDy=0;labelBackgroundColor=#FFFFFF;" edge="1" parent="1" source="YWkT2PEXVsnUWsBG_KgA-220" target="YWkT2PEXVsnUWsBG_KgA-225">
          <mxGeometry width="50" height="50" relative="1" as="geometry">
            <mxPoint x="769" y="568" as="sourcePoint" />
            <mxPoint x="795" y="593" as="targetPoint" />
            <Array as="points" />
          </mxGeometry>
        </mxCell>
        <mxCell id="YWkT2PEXVsnUWsBG_KgA-239" value="&lt;font style=&quot;font-size: 9px;&quot; face=&quot;Times New Roman&quot;&gt;M3&lt;/font&gt;" style="curved=1;endArrow=open;html=1;rounded=0;entryX=0;entryY=0;entryDx=0;entryDy=0;endFill=0;exitX=1;exitY=1;exitDx=0;exitDy=0;labelBackgroundColor=#FFFFFF;" edge="1" parent="1" source="YWkT2PEXVsnUWsBG_KgA-216" target="YWkT2PEXVsnUWsBG_KgA-219">
          <mxGeometry width="50" height="50" relative="1" as="geometry">
            <mxPoint x="892" y="510" as="sourcePoint" />
            <mxPoint x="918" y="536" as="targetPoint" />
            <Array as="points" />
          </mxGeometry>
        </mxCell>
        <mxCell id="YWkT2PEXVsnUWsBG_KgA-240" value="&lt;font style=&quot;font-size: 9px;&quot; face=&quot;Times New Roman&quot;&gt;M3&lt;/font&gt;" style="curved=1;endArrow=open;html=1;rounded=0;entryX=0;entryY=0;entryDx=0;entryDy=0;endFill=0;exitX=1;exitY=1;exitDx=0;exitDy=0;labelBackgroundColor=#FFFFFF;" edge="1" parent="1" source="YWkT2PEXVsnUWsBG_KgA-218" target="YWkT2PEXVsnUWsBG_KgA-222">
          <mxGeometry width="50" height="50" relative="1" as="geometry">
            <mxPoint x="739" y="617" as="sourcePoint" />
            <mxPoint x="765" y="643" as="targetPoint" />
            <Array as="points" />
          </mxGeometry>
        </mxCell>
        <mxCell id="YWkT2PEXVsnUWsBG_KgA-241" value="&lt;font style=&quot;font-size: 9px;&quot; face=&quot;Times New Roman&quot;&gt;M3&lt;/font&gt;" style="curved=1;endArrow=open;html=1;rounded=0;endFill=0;exitX=1;exitY=1;exitDx=0;exitDy=0;labelBackgroundColor=#F8CECC;" edge="1" parent="1" source="YWkT2PEXVsnUWsBG_KgA-221" target="YWkT2PEXVsnUWsBG_KgA-223">
          <mxGeometry width="50" height="50" relative="1" as="geometry">
            <mxPoint x="749" y="627" as="sourcePoint" />
            <mxPoint x="775" y="653" as="targetPoint" />
            <Array as="points" />
          </mxGeometry>
        </mxCell>
        <mxCell id="YWkT2PEXVsnUWsBG_KgA-242" value="&lt;font style=&quot;font-size: 9px;&quot; face=&quot;Times New Roman&quot;&gt;M3&lt;/font&gt;" style="curved=1;endArrow=open;html=1;rounded=0;entryX=0;entryY=0;entryDx=0;entryDy=0;endFill=0;exitX=1;exitY=1;exitDx=0;exitDy=0;" edge="1" parent="1" source="YWkT2PEXVsnUWsBG_KgA-225" target="YWkT2PEXVsnUWsBG_KgA-224">
          <mxGeometry width="50" height="50" relative="1" as="geometry">
            <mxPoint x="722" y="654" as="sourcePoint" />
            <mxPoint x="748" y="680" as="targetPoint" />
            <Array as="points" />
          </mxGeometry>
        </mxCell>
        <mxCell id="YWkT2PEXVsnUWsBG_KgA-243" value="&lt;font color=&quot;#999999&quot; face=&quot;Times New Roman&quot;&gt;&lt;b&gt;A&lt;/b&gt;&lt;/font&gt;" style="ellipse;whiteSpace=wrap;html=1;aspect=fixed;strokeWidth=0.75;fillColor=#E6E6E6;opacity=25;" vertex="1" parent="1">
          <mxGeometry x="582" y="700" width="20" height="20" as="geometry" />
        </mxCell>
        <mxCell id="YWkT2PEXVsnUWsBG_KgA-244" value="&lt;font color=&quot;#999999&quot; face=&quot;Times New Roman&quot;&gt;&lt;b&gt;C&lt;/b&gt;&lt;/font&gt;&lt;b style=&quot;border-color: var(--border-color); font-family: &amp;quot;Times New Roman&amp;quot;;&quot;&gt;&lt;sup style=&quot;border-color: var(--border-color);&quot;&gt;&lt;font color=&quot;#999999&quot;&gt;♯&lt;/font&gt;&lt;/sup&gt;&lt;/b&gt;" style="ellipse;whiteSpace=wrap;html=1;aspect=fixed;strokeWidth=0.75;fillColor=#E6E6E6;opacity=25;" vertex="1" parent="1">
          <mxGeometry x="642" y="760" width="20" height="20" as="geometry" />
        </mxCell>
        <mxCell id="YWkT2PEXVsnUWsBG_KgA-245" value="&lt;font color=&quot;#999999&quot; face=&quot;Times New Roman&quot;&gt;&lt;b&gt;F&lt;/b&gt;&lt;/font&gt;" style="ellipse;whiteSpace=wrap;html=1;aspect=fixed;strokeWidth=0.75;fillColor=#E6E6E6;opacity=25;" vertex="1" parent="1">
          <mxGeometry x="1005" y="641.09" width="20" height="20" as="geometry" />
        </mxCell>
        <mxCell id="YWkT2PEXVsnUWsBG_KgA-246" value="&lt;font color=&quot;#999999&quot; face=&quot;Times New Roman&quot;&gt;&lt;b&gt;C&lt;/b&gt;&lt;/font&gt;" style="ellipse;whiteSpace=wrap;html=1;aspect=fixed;strokeWidth=0.75;fillColor=#E6E6E6;opacity=25;" vertex="1" parent="1">
          <mxGeometry x="944" y="700" width="20" height="20" as="geometry" />
        </mxCell>
        <mxCell id="YWkT2PEXVsnUWsBG_KgA-247" value="&lt;font color=&quot;#999999&quot; face=&quot;Times New Roman&quot;&gt;&lt;b&gt;G&lt;/b&gt;&lt;/font&gt;" style="ellipse;whiteSpace=wrap;html=1;aspect=fixed;strokeWidth=0.75;fillColor=#E6E6E6;opacity=25;" vertex="1" parent="1">
          <mxGeometry x="882" y="760" width="20" height="20" as="geometry" />
        </mxCell>
        <mxCell id="YWkT2PEXVsnUWsBG_KgA-248" value="&lt;font color=&quot;#999999&quot; face=&quot;Times New Roman&quot;&gt;&lt;b&gt;D&lt;/b&gt;&lt;/font&gt;" style="ellipse;whiteSpace=wrap;html=1;aspect=fixed;strokeWidth=0.75;fillColor=#E6E6E6;opacity=25;" vertex="1" parent="1">
          <mxGeometry x="822" y="820" width="20" height="20" as="geometry" />
        </mxCell>
        <mxCell id="YWkT2PEXVsnUWsBG_KgA-249" value="&lt;font color=&quot;#999999&quot; face=&quot;Times New Roman&quot;&gt;&lt;b&gt;F&lt;/b&gt;&lt;/font&gt;" style="ellipse;whiteSpace=wrap;html=1;aspect=fixed;strokeWidth=0.75;fillColor=#E6E6E6;opacity=25;" vertex="1" parent="1">
          <mxGeometry x="702" y="820" width="20" height="20" as="geometry" />
        </mxCell>
        <mxCell id="YWkT2PEXVsnUWsBG_KgA-250" value="&lt;font color=&quot;#999999&quot; style=&quot;font-size: 9px;&quot; face=&quot;Times New Roman&quot;&gt;&amp;nbsp;P5&lt;/font&gt;" style="curved=1;endArrow=open;html=1;rounded=0;endFill=0;entryX=1;entryY=0;entryDx=0;entryDy=0;exitX=0;exitY=1;exitDx=0;exitDy=0;opacity=25;dashed=1;" edge="1" parent="1" source="YWkT2PEXVsnUWsBG_KgA-220" target="YWkT2PEXVsnUWsBG_KgA-243">
          <mxGeometry width="50" height="50" relative="1" as="geometry">
            <mxPoint x="642" y="654" as="sourcePoint" />
            <mxPoint x="596" y="700" as="targetPoint" />
            <Array as="points" />
          </mxGeometry>
        </mxCell>
        <mxCell id="YWkT2PEXVsnUWsBG_KgA-251" value="&lt;font color=&quot;#999999&quot; style=&quot;font-size: 9px;&quot; face=&quot;Times New Roman&quot;&gt;&amp;nbsp;P5&lt;/font&gt;" style="curved=1;endArrow=open;html=1;rounded=0;endFill=0;entryX=1;entryY=0;entryDx=0;entryDy=0;exitX=0;exitY=1;exitDx=0;exitDy=0;opacity=25;dashed=1;" edge="1" parent="1" source="YWkT2PEXVsnUWsBG_KgA-225" target="YWkT2PEXVsnUWsBG_KgA-244">
          <mxGeometry width="50" height="50" relative="1" as="geometry">
            <mxPoint x="655" y="667" as="sourcePoint" />
            <mxPoint x="609" y="713" as="targetPoint" />
            <Array as="points" />
          </mxGeometry>
        </mxCell>
        <mxCell id="YWkT2PEXVsnUWsBG_KgA-252" value="&lt;font color=&quot;#999999&quot; style=&quot;font-size: 9px;&quot; face=&quot;Times New Roman&quot;&gt;&amp;nbsp;P5&lt;/font&gt;" style="curved=1;endArrow=open;html=1;rounded=0;endFill=0;entryX=1;entryY=0;entryDx=0;entryDy=0;exitX=0;exitY=1;exitDx=0;exitDy=0;opacity=25;dashed=1;" edge="1" parent="1" source="YWkT2PEXVsnUWsBG_KgA-224" target="YWkT2PEXVsnUWsBG_KgA-249">
          <mxGeometry width="50" height="50" relative="1" as="geometry">
            <mxPoint x="665" y="677" as="sourcePoint" />
            <mxPoint x="619" y="723" as="targetPoint" />
            <Array as="points" />
          </mxGeometry>
        </mxCell>
        <mxCell id="YWkT2PEXVsnUWsBG_KgA-253" value="&lt;font color=&quot;#999999&quot; style=&quot;font-size: 9px;&quot; face=&quot;Times New Roman&quot;&gt;&amp;nbsp;M3&lt;/font&gt;" style="curved=1;endArrow=open;html=1;rounded=0;endFill=0;entryX=0;entryY=0;entryDx=0;entryDy=0;exitX=1;exitY=1;exitDx=0;exitDy=0;opacity=25;dashed=1;" edge="1" parent="1" source="YWkT2PEXVsnUWsBG_KgA-224" target="YWkT2PEXVsnUWsBG_KgA-248">
          <mxGeometry width="50" height="50" relative="1" as="geometry">
            <mxPoint x="715" y="727" as="sourcePoint" />
            <mxPoint x="669" y="773" as="targetPoint" />
            <Array as="points" />
          </mxGeometry>
        </mxCell>
        <mxCell id="YWkT2PEXVsnUWsBG_KgA-254" value="&lt;font color=&quot;#999999&quot; style=&quot;font-size: 9px;&quot; face=&quot;Times New Roman&quot;&gt;&amp;nbsp;M3&lt;/font&gt;" style="curved=1;endArrow=open;html=1;rounded=0;endFill=0;entryX=0;entryY=0;entryDx=0;entryDy=0;exitX=1;exitY=1;exitDx=0;exitDy=0;opacity=25;dashed=1;" edge="1" parent="1" source="YWkT2PEXVsnUWsBG_KgA-223" target="YWkT2PEXVsnUWsBG_KgA-247">
          <mxGeometry width="50" height="50" relative="1" as="geometry">
            <mxPoint x="789" y="787" as="sourcePoint" />
            <mxPoint x="835" y="833" as="targetPoint" />
            <Array as="points" />
          </mxGeometry>
        </mxCell>
        <mxCell id="YWkT2PEXVsnUWsBG_KgA-255" value="&lt;font color=&quot;#999999&quot; style=&quot;font-size: 9px;&quot; face=&quot;Times New Roman&quot;&gt;&amp;nbsp;M3&lt;/font&gt;" style="curved=1;endArrow=open;html=1;rounded=0;endFill=0;entryX=0;entryY=0;entryDx=0;entryDy=0;exitX=1;exitY=1;exitDx=0;exitDy=0;opacity=25;dashed=1;" edge="1" parent="1" source="YWkT2PEXVsnUWsBG_KgA-222" target="YWkT2PEXVsnUWsBG_KgA-246">
          <mxGeometry width="50" height="50" relative="1" as="geometry">
            <mxPoint x="799" y="797" as="sourcePoint" />
            <mxPoint x="845" y="843" as="targetPoint" />
            <Array as="points" />
          </mxGeometry>
        </mxCell>
        <mxCell id="YWkT2PEXVsnUWsBG_KgA-256" value="&lt;font color=&quot;#999999&quot; style=&quot;font-size: 9px;&quot; face=&quot;Times New Roman&quot;&gt;&amp;nbsp;M3&lt;/font&gt;" style="curved=1;endArrow=open;html=1;rounded=0;endFill=0;entryX=0;entryY=0;entryDx=0;entryDy=0;exitX=1;exitY=1;exitDx=0;exitDy=0;opacity=25;dashed=1;" edge="1" parent="1" source="YWkT2PEXVsnUWsBG_KgA-219" target="YWkT2PEXVsnUWsBG_KgA-245">
          <mxGeometry width="50" height="50" relative="1" as="geometry">
            <mxPoint x="809" y="807" as="sourcePoint" />
            <mxPoint x="855" y="853" as="targetPoint" />
            <Array as="points" />
          </mxGeometry>
        </mxCell>
        <mxCell id="YWkT2PEXVsnUWsBG_KgA-305" value="major scale" style="text;html=1;strokeColor=none;fillColor=none;align=center;verticalAlign=middle;whiteSpace=wrap;rounded=0;rotation=-45;fontStyle=1;fontColor=#FF3333;fontSize=16;" vertex="1" parent="1">
          <mxGeometry x="268.28" y="669.05" width="160" height="10" as="geometry" />
        </mxCell>
        <mxCell id="YWkT2PEXVsnUWsBG_KgA-307" value="major triad" style="text;html=1;strokeColor=none;fillColor=none;align=center;verticalAlign=middle;whiteSpace=wrap;rounded=0;rotation=-45;fontStyle=1;fontColor=#FF3333;fontSize=16;" vertex="1" parent="1">
          <mxGeometry x="602" y="151.08999999999992" width="160" height="10" as="geometry" />
        </mxCell>
        <mxCell id="YWkT2PEXVsnUWsBG_KgA-308" value="minor triad" style="text;html=1;strokeColor=none;fillColor=none;align=center;verticalAlign=middle;whiteSpace=wrap;rounded=0;rotation=-45;fontStyle=1;fontColor=#FF3333;fontSize=16;" vertex="1" parent="1">
          <mxGeometry x="883" y="198.08999999999992" width="160" height="10" as="geometry" />
        </mxCell>
        <mxCell id="YWkT2PEXVsnUWsBG_KgA-309" value="major seventh chord" style="text;html=1;strokeColor=none;fillColor=none;align=center;verticalAlign=middle;whiteSpace=wrap;rounded=0;rotation=-45;fontStyle=1;fontColor=#FF3333;fontSize=16;" vertex="1" parent="1">
          <mxGeometry x="698.59" y="469" width="160" height="10" as="geometry" />
        </mxCell>
        <mxCell id="YWkT2PEXVsnUWsBG_KgA-312" value="major sixth chord" style="text;html=1;strokeColor=none;fillColor=none;align=center;verticalAlign=middle;whiteSpace=wrap;rounded=0;rotation=-45;fontStyle=1;fontColor=#FF3333;fontSize=16;" vertex="1" parent="1">
          <mxGeometry x="804" y="700" width="160" height="10" as="geometry" />
        </mxCell>
      </root>
    </mxGraphModel>
  </diagram>
</mxfile>
